<svg xmlns="http://www.w3.org/2000/svg"  shape-rendering="crispEdges" xmlns:xlink="http://www.w3.org/1999/xlink" width="3.743in" height="3.743in" viewBox="4108.1 3108.1 374.3 374.3">      <style type="text/css">
      path, polyline, polygon { stroke-linejoin: round;}
      path, polyline, polygon, line { stroke-linecap: round;}
      rect, circle, ellipse, polyline, polygon, line, path { shape-rendering: crispEdges;}
      *[layerid="0"] { stroke: #FFFFFF; FILL: #FFFFFF;}
        *[layerid="1"] { stroke: #000000; fill: #000000;}        *[layerid="2"] { stroke: #000000; fill: #000000;}        *[layerid="3"] { stroke: #000000; fill: #000000;}        *[layerid="4"] { stroke: #000000; fill: #000000;}        *[layerid="5"] { stroke: #000000; fill: #000000;}        *[layerid="6"] { stroke: #000000; fill: #000000;}        *[layerid="7"] { stroke: #000000; fill: #000000;}        *[layerid="8"] { stroke: #000000; fill: #000000;}        *[layerid="9"] { stroke: #000000; fill: #000000;}        *[layerid="10"] { stroke: #000000; fill: #000000;}        *[layerid="11"] { stroke: #000000; fill: #000000;}        *[layerid="12"] { stroke: #000000; fill: #000000;}        *[layerid="13"] { stroke: #000000; fill: #000000;}        *[layerid="14"] { stroke: #000000; fill: #000000;}        *[layerid="15"] { stroke: #000000; fill: #000000;}        *[layerid="21"] { stroke: #000000; fill: #000000;}        *[layerid="22"] { stroke: #000000; fill: #000000;}        *[layerid="23"] { stroke: #000000; fill: #000000;}        *[layerid="24"] { stroke: #000000; fill: #000000;}          *[fill="none"] { fill: none; }
      *[stroke="none"] { stroke: none;}
      g[c_partid="part_pad"] > * + circle { fill: #FFFFFF;}
      g[c_partid="part_via"] > * + circle { fill: #FFFFFF;}
	g[c_partid="part_pad"] > polyline:nth-child(2) {stroke: #FFFFFF;}
	  </style><g >   <rect x="4108.1" y="3108.1" width="374.3" height="374.3" fill="#FFFFFF" stroke="none"/> <polyline points="4205.09 3212.03 4205.09 3207.63" stroke-width="0.8"   stroke-linecap="round" fill="none" layerid="1"/> <polyline points="4205.09 3207.63 4230.88 3207.63 4247.09 3191.42" stroke-width="0.8"   stroke-linecap="round" fill="none" layerid="1"/> <polyline points="4247.09 3191.42 4261.57 3176.95 4288.98 3176.95" stroke-width="0.8"   stroke-linecap="round" fill="none" layerid="1"/> <polyline points="4329.19 3198.79 4254.46 3198.79 4247.09 3191.42" stroke-width="0.8"   stroke-linecap="round" fill="none" layerid="1"/> <polyline points="4329.19 3198.42 4329.19 3198.79" stroke-width="0.8"   stroke-linecap="round" fill="none" layerid="1"/> <polyline points="4329.19 3194.63 4329.19 3198.42" stroke-width="0.8"   stroke-linecap="round" fill="none" layerid="1"/> <polyline points="4288.98 3173 4288.98 3176.95" stroke-width="0.8"   stroke-linecap="round" fill="none" layerid="1"/> <polyline points="4329.19 3194.63 4329.19 3191.21" stroke-width="0.8"   stroke-linecap="round" fill="none" layerid="1"/> <polyline points="4301.58 3415.59 4297.45 3415.59" stroke-width="0.8"   stroke-linecap="round" fill="none" layerid="1"/> <polyline points="4301.58 3415.59 4301.58 3413.61" stroke-width="0.8"   stroke-linecap="round" fill="none" layerid="1"/> <polyline points="4301.58 3417.57 4301.58 3415.59" stroke-width="0.8"   stroke-linecap="round" fill="none" layerid="1"/> <polyline points="4378.52 3205.09 4372.23 3198.79 4329.19 3198.79" stroke-width="0.8"   stroke-linecap="round" fill="none" layerid="1"/> <polyline points="4419.1 3187.56 4401.58 3205.09 4378.52 3205.09" stroke-width="0.8"   stroke-linecap="round" fill="none" layerid="1"/> <polyline points="4385.47 3376.56 4385.47 3381.43 4400.4 3396.36 4416.66 3396.36 4422.76 3402.46 4422.76 3403.47 4409.1 3417.13 4403 3417.13" stroke-width="0.8"   stroke-linecap="round" fill="none" layerid="1"/> <polyline points="4301.58 3413.61 4338.64 3376.56 4385.47 3376.56" stroke-width="0.8"   stroke-linecap="round" fill="none" layerid="1"/> <polyline points="4216.24 3388.67 4276.63 3388.67 4301.58 3413.61" stroke-width="0.8"   stroke-linecap="round" fill="none" layerid="1"/> <polyline points="4175.66 3406.2 4193.2 3388.67 4216.24 3388.67" stroke-width="0.8"   stroke-linecap="round" fill="none" layerid="1"/> <polyline points="4174.61 3301.3 4170.65 3301.3" stroke-width="0.8"   stroke-linecap="round" fill="none" layerid="1"/> <polyline points="4133.5 3285 4158.31 3285 4170.65 3297.35 4170.65 3301.3" stroke-width="0.8"   stroke-linecap="round" fill="none" layerid="1"/> <polyline points="4417.66 3288.94 4421.61 3288.94" stroke-width="0.8"   stroke-linecap="round" fill="none" layerid="1"/> <polyline points="4458.67 3305.28 4434 3305.28 4421.61 3292.89 4421.61 3288.94" stroke-width="0.8"   stroke-linecap="round" fill="none" layerid="1"/> <polyline points="4401.01 3196.05 4401.01 3200.42" stroke-width="0.8"   stroke-linecap="round" fill="none" layerid="1"/> <polyline points="4404.96 3173.41 4404.96 3192.1 4401.01 3196.05" stroke-width="0.8"   stroke-linecap="round" fill="none" layerid="1"/> <polyline points="4401.01 3196.05 4349.09 3196.05 4336.66 3183.63 4325.13 3183.63 4319.19 3189.57 4319.19 3191.21" stroke-width="0.8"   stroke-linecap="round" fill="none" layerid="1"/> <polyline points="4176.28 3185.58 4173.42 3185.58" stroke-width="0.8"   stroke-linecap="round" fill="none" layerid="1"/> <polyline points="4196.22 3189.54 4192.27 3185.58 4176.28 3185.58" stroke-width="0.8"   stroke-linecap="round" fill="none" layerid="1"/> <polyline points="4176.28 3185.58 4176.28 3173.91 4192.913 3157.48 4248.031 3157.48 4263.779 3141.732 4275.59 3141.732 4284.28 3136.09" stroke-width="0.8"   stroke-linecap="round" fill="none" layerid="1"/> <polyline points="4390.13 3399.04 4385.94 3399.04" stroke-width="0.8"   stroke-linecap="round" fill="none" layerid="1"/> <polyline points="4385.94 3399.04 4330.53 3454.45 4305.28 3454.45" stroke-width="0.8"   stroke-linecap="round" fill="none" layerid="1"/> <polyline points="4390.13 3399.04 4413.19 3399.04 4417.13 3402.99" stroke-width="0.8"   stroke-linecap="round" fill="none" layerid="1"/> <polyline points="4193.76 3418.53 4274.7 3418.53 4288.98 3432.81" stroke-width="0.8"   stroke-linecap="round" fill="none" layerid="1"/> <polyline points="4189.81 3420.34 4191.62 3418.53 4193.76 3418.53" stroke-width="0.8"   stroke-linecap="round" fill="none" layerid="1"/> <polyline points="4193.76 3418.53 4193.76 3393.33" stroke-width="0.8"   stroke-linecap="round" fill="none" layerid="1"/> <polyline points="4288.98 3436.77 4288.98 3432.81" stroke-width="0.8"   stroke-linecap="round" fill="none" layerid="1"/> <polyline points="4200.43 3189.54 4196.22 3189.54" stroke-width="0.8"   stroke-linecap="round" fill="none" layerid="1"/> <polyline points="4288.98 3436.77 4288.98 3440.72" stroke-width="0.8"   stroke-linecap="round" fill="none" layerid="1"/> <polyline points="4305.28 3458.65 4305.28 3454.45" stroke-width="0.8"   stroke-linecap="round" fill="none" layerid="1"/> <polyline points="4305.28 3454.45 4291.55 3440.72 4288.98 3440.72" stroke-width="0.8"   stroke-linecap="round" fill="none" layerid="1"/> <polyline points="4155.4 3288.7 4151.45 3288.7" stroke-width="0.8"   stroke-linecap="round" fill="none" layerid="1"/> <polyline points="4133.5 3305 4137.7 3305" stroke-width="0.8"   stroke-linecap="round" fill="none" layerid="1"/> <polyline points="4137.7 3305 4151.45 3291.25 4151.45 3288.7" stroke-width="0.8"   stroke-linecap="round" fill="none" layerid="1"/> <polyline points="4301.58 3153.8 4301.58 3149.84" stroke-width="0.8"   stroke-linecap="round" fill="none" layerid="1"/> <polyline points="4284.28 3131.89 4284.28 3136.09" stroke-width="0.8"   stroke-linecap="round" fill="none" layerid="1"/> <polyline points="4284.28 3136.09 4298.03 3149.84 4301.58 3149.84" stroke-width="0.8"   stroke-linecap="round" fill="none" layerid="1"/> <polyline points="4436.86 3301.54 4440.81 3301.54" stroke-width="0.8"   stroke-linecap="round" fill="none" layerid="1"/> <polyline points="4458.75 3285.24 4454.55 3285.24" stroke-width="0.8"   stroke-linecap="round" fill="none" layerid="1"/> <polyline points="4454.55 3285.24 4440.81 3298.98 4440.81 3301.54" stroke-width="0.8"   stroke-linecap="round" fill="none" layerid="1"/> <polyline points="4269.19 3183.63 4323.01 3183.63 4324.51 3182.12 4338.04 3182.12 4338.92 3183 4338.92 3183.63 4384.22 3183.63 4392.1 3191.51" stroke-width="0.8"   stroke-linecap="round" fill="none" layerid="1"/> <polyline points="4269.19 3191.21 4269.19 3183.63" stroke-width="0.8"   stroke-linecap="round" fill="none" layerid="1"/> <polyline points="4436.86 3288.94 4432.9 3288.94" stroke-width="0.8"   stroke-linecap="round" fill="none" layerid="1"/> <polyline points="4432.9 3288.94 4387.43 3243.47 4387.43 3214" stroke-width="0.8"   stroke-linecap="round" fill="none" layerid="1"/> <polyline points="4417.66 3301.54 4413.7 3301.54" stroke-width="0.8"   stroke-linecap="round" fill="none" layerid="1"/> <polyline points="4399.04 3390.13 4399.04 3316.2 4413.7 3301.54" stroke-width="0.8"   stroke-linecap="round" fill="none" layerid="1"/> <polyline points="4376.56 3385.47 4372.35 3385.47" stroke-width="0.8"   stroke-linecap="round" fill="none" layerid="1"/> <polyline points="4301.58 3436.77 4301.58 3432.81" stroke-width="0.8"   stroke-linecap="round" fill="none" layerid="1"/> <polyline points="4301.58 3432.81 4325.01 3432.81 4372.35 3385.47" stroke-width="0.8"   stroke-linecap="round" fill="none" layerid="1"/> <polyline points="4288.98 3413.61 4277.61 3402.24 4202.67 3402.24" stroke-width="0.8"   stroke-linecap="round" fill="none" layerid="1"/> <polyline points="4288.98 3417.57 4288.98 3413.61" stroke-width="0.8"   stroke-linecap="round" fill="none" layerid="1"/> <polyline points="4155.4 3301.3 4155.4 3327.82 4207.33 3379.76" stroke-width="0.8"   stroke-linecap="round" fill="none" layerid="1"/> <polyline points="4174.61 3288.7 4178.56 3288.7" stroke-width="0.8"   stroke-linecap="round" fill="none" layerid="1"/> <polyline points="4191.52 3198.45 4191.52 3275.74 4178.56 3288.7" stroke-width="0.8"   stroke-linecap="round" fill="none" layerid="1"/> <polyline points="4288.98 3153.8 4288.98 3157.75" stroke-width="0.8"   stroke-linecap="round" fill="none" layerid="1"/> <polyline points="4288.98 3157.75 4259.37 3157.75 4214 3203.12" stroke-width="0.8"   stroke-linecap="round" fill="none" layerid="1"/> <polyline points="4304.71 3158.02 4299.47 3158.02 4292.08 3150.63 4292.08 3150.07 4291.54 3149.53 4272.08 3149.53 4257.874 3153.543 4250 3161.417 4190.944 3161.417 4181.87 3170.99 4181.99 3171.12 4181.99 3172.99 4181.11 3173.87 4180.49 3173.87 4180.49 3178.51" stroke-width="0.8"   stroke-linecap="round" fill="none" layerid="1"/> <polyline points="4304.71 3158.02 4304.71 3167.91" stroke-width="0.8"   stroke-linecap="round" fill="none" layerid="1"/> <polyline points="4294.27 3131.89 4304.71 3142.33 4304.71 3158.02" stroke-width="0.8"   stroke-linecap="round" fill="none" layerid="1"/> <polyline points="4295.27 3458.65 4264.63 3428.01 4190.7 3428.01 4182.73 3420.04 4182.73 3413.27" stroke-width="0.8"   stroke-linecap="round" fill="none" layerid="1"/> <polyline points="4304.71 3167.91 4302.71 3167.91 4301.58 3169.04" stroke-width="0.8"   stroke-linecap="round" fill="none" layerid="1"/> <polyline points="4412.02 3180.49 4412.02 3173.94 4405.99 3167.91 4304.71 3167.91" stroke-width="0.8"   stroke-linecap="round" fill="none" layerid="1"/> <polyline points="4301.58 3173 4301.58 3169.04" stroke-width="0.8"   stroke-linecap="round" fill="none" layerid="1"/> <polyline points="4205.09 3207.63 4205.09 3188.97 4187.56 3171.44" stroke-width="0.8"   stroke-linecap="round" fill="none" layerid="1"/> <polyline points="4403 3417.13 4407.672 3417.13 4425.196 3399.606 4425.196 3338.754 4458.67 3305.28" stroke-width="0.8"   stroke-linecap="round" fill="none" layerid="2"/> <polyline points="4285.27 3458.65 4285.27 3427.76 4297.45 3415.59" stroke-width="0.8"   stroke-linecap="round" fill="none" layerid="2"/> <polyline points="4133.5 3285 4167.45 3251.05 4167.45 3185.49 4181.5 3171.44 4187.56 3171.44" stroke-width="0.8"   stroke-linecap="round" fill="none" layerid="2"/> <polyline points="4304.27 3131.89 4329.19 3156.81 4329.19 3191.21" stroke-width="0.8"   stroke-linecap="round" fill="none" layerid="2"/> <polyline points="4404.96 3173.41 4411.47 3173.41 4425.03 3186.97 4425.03 3200.621 4456.692 3232.283 4456.692 3285.24 4458.75 3285.24" stroke-width="0.8"   stroke-linecap="round" fill="none" layerid="2"/> <polyline points="4319.19 3191.21 4319.19 3198.79" stroke-width="0.8"   stroke-linecap="round" fill="none" layerid="2"/> <polyline points="4295.08 3342.37 4295.08 3338.09" stroke-width="0.8"   stroke-linecap="round" fill="none" layerid="2"/> <polyline points="4295.08 3338.09 4314.49 3318.68 4314.49 3203.5 4319.19 3198.79" stroke-width="0.8"   stroke-linecap="round" fill="none" layerid="2"/> <polyline points="4295.08 3344.5 4295.08 3342.37" stroke-width="0.8"   stroke-linecap="round" fill="none" layerid="2"/> <polyline points="4295.08 3344.5 4295.08 3346.64" stroke-width="0.8"   stroke-linecap="round" fill="none" layerid="2"/> <polyline points="4133.5 3305 4133.5 3300.8" stroke-width="0.8"   stroke-linecap="round" fill="none" layerid="2"/> <polyline points="4133.5 3300.8 4132.45 3300.8 4128.55 3296.9 4128.55 3294 4132.02 3290.53 4133.91 3290.53 4173.42 3251.03 4173.42 3185.58" stroke-width="0.8"   stroke-linecap="round" fill="none" layerid="2"/> <polyline points="4284.28 3131.89 4284.28 3136.09" stroke-width="0.8"   stroke-linecap="round" fill="none" layerid="2"/> <polyline points="4284.28 3136.09 4319.19 3171 4319.19 3191.21" stroke-width="0.8"   stroke-linecap="round" fill="none" layerid="2"/> <polyline points="4295.08 3346.64 4305.28 3356.85 4305.28 3458.65" stroke-width="0.8"   stroke-linecap="round" fill="none" layerid="2"/> <polyline points="4305.08 3342.37 4329.19 3318.26 4329.19 3281.21" stroke-width="0.8"   stroke-linecap="round" fill="none" layerid="2"/> <polyline points="4458.67 3295.28 4443.35 3279.96 4443.35 3225.15 4412.02 3193.82 4412.02 3180.49" stroke-width="0.8"   stroke-linecap="round" fill="none" layerid="2"/> <polyline points="4410.06 3410.06 4410.06 3343.89 4458.67 3295.28" stroke-width="0.8"   stroke-linecap="round" fill="none" layerid="2"/> <polyline points="4182.73 3413.27 4182.73 3344.23 4133.5 3295" stroke-width="0.8"   stroke-linecap="round" fill="none" layerid="2"/> <polyline points="4133.5 3295 4180.49 3248.01 4180.49 3178.51" stroke-width="0.8"   stroke-linecap="round" fill="none" layerid="2"/> <polyline points="4458.67 3305.28 4463.33 3300.62 4463.33 3293.2 4460.93 3290.79 4456.34 3290.79 4453.84 3288.3 4453.84 3233.52 4419.1 3198.78 4419.1 3187.56" stroke-width="0.8"   stroke-linecap="round" fill="none" layerid="2"/><path d="M 4230 3359.9991 L 4230 3375.0291 M 4230 3375.0291 L 4238.59 3375.0291 M 4251.9 3365.0091 L 4251.9 3375.0291 M 4251.9 3367.1591 L 4250.47 3365.7291 L 4249.04 3365.0091 L 4246.89 3365.0091 L 4245.46 3365.7291 L 4244.03 3367.1591 L 4243.31 3369.2991 L 4243.31 3370.7391 L 4244.03 3372.8791 L 4245.46 3374.3191 L 4246.89 3375.0291 L 4249.04 3375.0291 L 4250.47 3374.3191 L 4251.9 3372.8791 M 4264.5 3367.1591 L 4263.79 3365.7291 L 4261.64 3365.0091 L 4259.49 3365.0091 L 4257.34 3365.7291 L 4256.63 3367.1591 L 4257.34 3368.5891 L 4258.77 3369.2991 L 4262.35 3370.0191 L 4263.79 3370.7391 L 4264.5 3372.1691 L 4264.5 3372.8791 L 4263.79 3374.3191 L 4261.64 3375.0291 L 4259.49 3375.0291 L 4257.34 3374.3191 L 4256.63 3372.8791 M 4269.23 3369.2991 L 4277.82 3369.2991 L 4277.82 3367.8691 L 4277.1 3366.4391 L 4276.38 3365.7291 L 4274.95 3365.0091 L 4272.8 3365.0091 L 4271.37 3365.7291 L 4269.94 3367.1591 L 4269.23 3369.2991 L 4269.23 3370.7391 L 4269.94 3372.8791 L 4271.37 3374.3191 L 4272.8 3375.0291 L 4274.95 3375.0291 L 4276.38 3374.3191 L 4277.82 3372.8791 M 4282.54 3365.0091 L 4282.54 3375.0291 M 4282.54 3369.2991 L 4283.26 3367.1591 L 4284.69 3365.7291 L 4286.12 3365.0091 L 4288.27 3365.0091 M 4309.03 3359.9991 L 4309.03 3375.0291 M 4304.01 3359.9991 L 4314.04 3359.9991 M 4327.35 3365.0091 L 4327.35 3375.0291 M 4327.35 3367.1591 L 4325.92 3365.7291 L 4324.49 3365.0091 L 4322.34 3365.0091 L 4320.91 3365.7291 L 4319.48 3367.1591 L 4318.76 3369.2991 L 4318.76 3370.7391 L 4319.48 3372.8791 L 4320.91 3374.3191 L 4322.34 3375.0291 L 4324.49 3375.0291 L 4325.92 3374.3191 L 4327.35 3372.8791 M 4332.07 3365.0091 L 4332.07 3375.0291 M 4332.07 3369.2991 L 4332.79 3367.1591 L 4334.22 3365.7291 L 4335.65 3365.0091 L 4337.8 3365.0091 M 4351.12 3365.0091 L 4351.12 3376.4591 L 4350.4 3378.6091 L 4349.68 3379.3291 L 4348.25 3380.0391 L 4346.1 3380.0391 L 4344.67 3379.3291 M 4351.12 3367.1591 L 4349.68 3365.7291 L 4348.25 3365.0091 L 4346.1 3365.0091 L 4344.67 3365.7291 L 4343.24 3367.1591 L 4342.53 3369.2991 L 4342.53 3370.7391 L 4343.24 3372.8791 L 4344.67 3374.3191 L 4346.1 3375.0291 L 4348.25 3375.0291 L 4349.68 3374.3191 L 4351.12 3372.8791 M 4355.84 3369.2991 L 4364.43 3369.2991 L 4364.43 3367.8691 L 4363.71 3366.4391 L 4363 3365.7291 L 4361.57 3365.0091 L 4359.42 3365.0091 L 4357.99 3365.7291 L 4356.56 3367.1591 L 4355.84 3369.2991 L 4355.84 3370.7391 L 4356.56 3372.8791 L 4357.99 3374.3191 L 4359.42 3375.0291 L 4361.57 3375.0291 L 4363 3374.3191 L 4364.43 3372.8791 M 4371.3 3359.9991 L 4371.3 3372.1691 L 4372.02 3374.3191 L 4373.45 3375.0291 L 4374.88 3375.0291 M 4369.15 3365.0091 L 4374.16 3365.0091" fill="none" layerid="3"  stroke-linecap="round" stroke-width="1.5748" /><path d="M 4260.359 3391.8091 L 4260.359 3391.4491 L 4260.729 3390.7191 L 4261.089 3390.3591 L 4261.819 3389.9991 L 4263.269 3389.9991 L 4263.999 3390.3591 L 4264.359 3390.7191 L 4264.729 3391.4491 L 4264.729 3392.1791 L 4264.359 3392.8991 L 4263.639 3393.9991 L 4259.999 3397.6291 L 4265.089 3397.6291 M 4269.669 3389.9991 L 4268.579 3390.3591 L 4267.849 3391.4491 L 4267.489 3393.2691 L 4267.489 3394.3591 L 4267.849 3396.1791 L 4268.579 3397.2691 L 4269.669 3397.6291 L 4270.399 3397.6291 L 4271.489 3397.2691 L 4272.219 3396.1791 L 4272.579 3394.3591 L 4272.579 3393.2691 L 4272.219 3391.4491 L 4271.489 3390.3591 L 4270.399 3389.9991 L 4269.669 3389.9991 M 4274.979 3391.4491 L 4275.709 3391.0891 L 4276.799 3389.9991 L 4276.799 3397.6291 M 4284.289 3389.9991 L 4280.649 3397.6291 M 4279.199 3389.9991 L 4284.289 3389.9991 M 4287.049 3395.8091 L 4286.689 3396.1791 L 4287.049 3396.5391 L 4287.419 3396.1791 L 4287.049 3395.8091 M 4289.819 3391.4491 L 4290.539 3391.0891 L 4291.639 3389.9991 L 4291.639 3397.6291 M 4294.399 3391.8091 L 4294.399 3391.4491 L 4294.759 3390.7191 L 4295.129 3390.3591 L 4295.849 3389.9991 L 4297.309 3389.9991 L 4298.039 3390.3591 L 4298.399 3390.7191 L 4298.759 3391.4491 L 4298.759 3392.1791 L 4298.399 3392.8991 L 4297.669 3393.9991 L 4294.039 3397.6291 L 4299.129 3397.6291 M 4307.129 3392.5391 L 4309.309 3397.6291 M 4311.489 3392.5391 L 4309.309 3397.6291 M 4316.069 3389.9991 L 4314.979 3390.3591 L 4314.249 3391.4491 L 4313.889 3393.2691 L 4313.889 3394.3591 L 4314.249 3396.1791 L 4314.979 3397.2691 L 4316.069 3397.6291 L 4316.799 3397.6291 L 4317.889 3397.2691 L 4318.619 3396.1791 L 4318.979 3394.3591 L 4318.979 3393.2691 L 4318.619 3391.4491 L 4317.889 3390.3591 L 4316.799 3389.9991 L 4316.069 3389.9991 M 4321.739 3395.8091 L 4321.379 3396.1791 L 4321.739 3396.5391 L 4322.109 3396.1791 L 4321.739 3395.8091 M 4324.509 3391.4491 L 4325.239 3391.0891 L 4326.329 3389.9991 L 4326.329 3397.6291" fill="none" layerid="3"  stroke-linecap="round" stroke-width="0.8" /><path d="M 4221.7369 3236.212 L 4224.7969 3236.212 L 4225.4169 3236.012 L 4225.8269 3235.602 L 4226.0269 3234.982 L 4226.0269 3234.572 L 4225.8269 3233.962 L 4225.4169 3233.552 L 4224.7969 3233.352 L 4221.7369 3233.352 M 4221.7369 3231.592 L 4221.7369 3229.342 L 4223.3669 3230.562 L 4223.3669 3229.952 L 4223.5769 3229.542 L 4223.7769 3229.342 L 4224.3869 3229.132 L 4224.7969 3229.132 L 4225.4169 3229.342 L 4225.8269 3229.752 L 4226.0269 3230.362 L 4226.0269 3230.972 L 4225.8269 3231.592 L 4225.6169 3231.792 L 4225.2069 3232.002" fill="none" layerid="3"  stroke-linecap="round" stroke-width="0.7" /> <polyline points="4229.19 3276.212 4229.19 3196.212" stroke-width="1"   stroke-linecap="round" fill="none" layerid="3"/> <polyline points="4364.19 3251.212 4364.19 3221.212 4344.19 3221.212 4344.19 3251.212 4364.19 3251.212" stroke-width="1"   stroke-linecap="round" fill="none" layerid="3"/> <polyline points="4339.19 3266.212 4339.19 3281.212 4359.19 3281.212 4359.19 3266.212 4339.19 3266.212" stroke-width="1"   stroke-linecap="round" fill="none" layerid="3"/> <polyline points="4257.19 3263.212 4257.19 3209.212 4322.19 3209.212 4322.19 3263.212 4257.19 3263.212" stroke-width="1"   stroke-linecap="round" fill="none" layerid="3"/> <polyline points="4257.19 3263.212 4229.19 3263.212" stroke-width="1"   stroke-linecap="round" fill="none" layerid="3"/> <polyline points="4257.19 3209.212 4229.19 3209.212" stroke-width="1"   stroke-linecap="round" fill="none" layerid="3"/> <polyline points="4334.37 3286.212 4339.37 3281.212 4364.37 3281.212" stroke-width="1"   stroke-linecap="round" fill="none" layerid="3"/> <polyline points="4239.37 3186.212 4364.37 3186.212 4364.37 3281.212" stroke-width="1"   stroke-linecap="round" fill="none" layerid="3"/> <polyline points="4239.37 3286.212 4334.37 3286.212" stroke-width="1"   stroke-linecap="round" fill="none" layerid="3"/>  <path d="M 4239.1901 3286.2119 A 9.99998 9.99998 0 0 1 4229.1901 3276.2119" layerid="3" fill="none"  stroke-linecap="round" stroke-width="1"/>  <path d="M 4229.1901 3196.2121 A 9.99998 9.99998 0 0 1 4239.1901 3186.2121" layerid="3" fill="none"  stroke-linecap="round" stroke-width="1"/><path d="M 4337.69 3214.212 L 4340.75 3214.212 M 4337.69 3214.212 L 4337.69 3213.192 L 4337.84 3212.762 L 4338.13 3212.462 L 4338.42 3212.322 L 4338.86 3212.172 L 4339.59 3212.172 L 4340.02 3212.322 L 4340.31 3212.462 L 4340.6 3212.762 L 4340.75 3213.192 L 4340.75 3214.212 M 4338.28 3211.212 L 4338.13 3210.922 L 4337.69 3210.492 L 4340.75 3210.492 M 4338.71 3205.052 L 4340.75 3205.052 M 4339.29 3205.052 L 4338.86 3204.612 L 4338.71 3204.322 L 4338.71 3203.882 L 4338.86 3203.592 L 4339.29 3203.452 L 4340.75 3203.452 M 4339.29 3203.452 L 4338.86 3203.012 L 4338.71 3202.722 L 4338.71 3202.282 L 4338.86 3201.992 L 4339.29 3201.852 L 4340.75 3201.852 M 4337.69 3200.892 L 4337.84 3200.742 L 4337.69 3200.602 L 4337.55 3200.742 L 4337.69 3200.892 M 4338.71 3200.742 L 4340.75 3200.742 M 4338.71 3199.642 L 4340.75 3199.642 M 4339.29 3199.642 L 4338.86 3199.202 L 4338.71 3198.912 L 4338.71 3198.472 L 4338.86 3198.182 L 4339.29 3198.042 L 4340.75 3198.042 M 4337.69 3197.082 L 4337.84 3196.932 L 4337.69 3196.782 L 4337.55 3196.932 L 4337.69 3197.082 M 4338.71 3196.932 L 4340.75 3196.932 M 4344.89 3211.972 L 4347.95 3210.812 M 4344.89 3209.642 L 4347.95 3210.812 M 4345.62 3208.542 L 4345.48 3208.542 L 4345.19 3208.392 L 4345.04 3208.252 L 4344.89 3207.962 L 4344.89 3207.372 L 4345.04 3207.082 L 4345.19 3206.942 L 4345.48 3206.792 L 4345.77 3206.792 L 4346.06 3206.942 L 4346.49 3207.232 L 4347.95 3208.682 L 4347.95 3206.652 M 4347.22 3205.542 L 4347.37 3205.692 L 4347.51 3205.542 L 4347.37 3205.402 L 4347.22 3205.542 M 4344.89 3204.142 L 4344.89 3202.542 L 4346.06 3203.422 L 4346.06 3202.982 L 4346.2 3202.692 L 4346.35 3202.542 L 4346.79 3202.402 L 4347.08 3202.402 L 4347.51 3202.542 L 4347.8 3202.842 L 4347.95 3203.272 L 4347.95 3203.712 L 4347.8 3204.142 L 4347.66 3204.292 L 4347.37 3204.442 M 4347.22 3201.292 L 4347.37 3201.442 L 4347.51 3201.292 L 4347.37 3201.152 L 4347.22 3201.292 M 4344.89 3199.322 L 4345.04 3199.752 L 4345.48 3200.042 L 4346.2 3200.192 L 4346.64 3200.192 L 4347.37 3200.042 L 4347.8 3199.752 L 4347.95 3199.322 L 4347.95 3199.022 L 4347.8 3198.592 L 4347.37 3198.302 L 4346.64 3198.152 L 4346.2 3198.152 L 4345.48 3198.302 L 4345.04 3198.592 L 4344.89 3199.022 L 4344.89 3199.322 M 4352.09 3214.212 L 4355.15 3213.482 M 4352.09 3212.762 L 4355.15 3213.482 M 4352.09 3212.762 L 4355.15 3212.032 M 4352.09 3211.302 L 4355.15 3212.032 M 4352.09 3210.342 L 4355.15 3210.342 M 4352.09 3210.342 L 4352.09 3208.452 M 4353.55 3210.342 L 4353.55 3209.182 M 4355.15 3210.342 L 4355.15 3208.452 M 4352.09 3207.492 L 4355.15 3207.492 M 4352.09 3207.492 L 4355.15 3206.332 M 4352.09 3205.162 L 4355.15 3206.332 M 4352.09 3205.162 L 4355.15 3205.162 M 4352.09 3203.332 L 4352.24 3203.622 L 4352.53 3203.912 L 4352.82 3204.062 L 4353.26 3204.202 L 4353.99 3204.202 L 4354.42 3204.062 L 4354.71 3203.912 L 4355 3203.622 L 4355.15 3203.332 L 4355.15 3202.752 L 4355 3202.462 L 4354.71 3202.172 L 4354.42 3202.022 L 4353.99 3201.882 L 4353.26 3201.882 L 4352.82 3202.022 L 4352.53 3202.172 L 4352.24 3202.462 L 4352.09 3202.752 L 4352.09 3203.332 M 4352.53 3198.882 L 4352.24 3199.172 L 4352.09 3199.612 L 4352.09 3200.192 L 4352.24 3200.622 L 4352.53 3200.922 L 4352.82 3200.922 L 4353.11 3200.772 L 4353.26 3200.622 L 4353.4 3200.332 L 4353.69 3199.462 L 4353.84 3199.172 L 4353.99 3199.022 L 4354.28 3198.882 L 4354.71 3198.882 L 4355 3199.172 L 4355.15 3199.612 L 4355.15 3200.192 L 4355 3200.622 L 4354.71 3200.922 M 4354.42 3197.772 L 4354.57 3197.922 L 4354.71 3197.772 L 4354.57 3197.632 L 4354.42 3197.772 M 4352.82 3194.492 L 4352.53 3194.632 L 4352.24 3194.922 L 4352.09 3195.212 L 4352.09 3195.802 L 4352.24 3196.092 L 4352.53 3196.382 L 4352.82 3196.522 L 4353.26 3196.672 L 4353.99 3196.672 L 4354.42 3196.522 L 4354.71 3196.382 L 4355 3196.092 L 4355.15 3195.802 L 4355.15 3195.212 L 4355 3194.922 L 4354.71 3194.632 L 4354.42 3194.492 M 4352.82 3191.342 L 4352.53 3191.492 L 4352.24 3191.782 L 4352.09 3192.072 L 4352.09 3192.652 L 4352.24 3192.942 L 4352.53 3193.242 L 4352.82 3193.382 L 4353.26 3193.532 L 4353.99 3193.532 L 4354.42 3193.382 L 4354.71 3193.242 L 4355 3192.942 L 4355.15 3192.652 L 4355.15 3192.072 L 4355 3191.782 L 4354.71 3191.492 L 4354.42 3191.342" fill="none" layerid="3"  stroke-linecap="round" stroke-width="0.6" /><path d="M 4257.73 3273.212 L 4260.6 3273.212 M 4257.73 3273.212 L 4257.73 3271.982 L 4257.87 3271.572 L 4258.01 3271.442 L 4258.28 3271.302 L 4258.55 3271.302 L 4258.82 3271.442 L 4258.96 3271.572 L 4259.1 3271.982 L 4259.1 3273.212 M 4259.1 3272.262 L 4260.6 3271.302 M 4258.14 3268.492 L 4257.87 3268.762 L 4257.73 3269.172 L 4257.73 3269.722 L 4257.87 3270.132 L 4258.14 3270.402 L 4258.42 3270.402 L 4258.69 3270.262 L 4258.82 3270.132 L 4258.96 3269.862 L 4259.23 3269.042 L 4259.37 3268.762 L 4259.51 3268.632 L 4259.78 3268.492 L 4260.19 3268.492 L 4260.46 3268.762 L 4260.6 3269.172 L 4260.6 3269.722 L 4260.46 3270.132 L 4260.19 3270.402 M 4257.73 3266.642 L 4260.6 3266.642 M 4257.73 3267.592 L 4257.73 3265.682" fill="none" layerid="3"  stroke-linecap="round" stroke-width="0.6" /><path d="M 4267.73 3272.122 L 4270.6 3273.212 M 4267.73 3272.122 L 4270.6 3271.032 M 4269.64 3272.802 L 4269.64 3271.442 M 4267.73 3269.312 L 4267.87 3269.722 L 4268.28 3269.992 L 4268.96 3270.132 L 4269.37 3270.132 L 4270.05 3269.992 L 4270.46 3269.722 L 4270.6 3269.312 L 4270.6 3269.042 L 4270.46 3268.632 L 4270.05 3268.362 L 4269.37 3268.222 L 4268.96 3268.222 L 4268.28 3268.362 L 4267.87 3268.632 L 4267.73 3269.042 L 4267.73 3269.312" fill="none" layerid="3"  stroke-linecap="round" stroke-width="0.6" /><path d="M 4277.73 3273.212 L 4280.6 3273.212 M 4277.73 3273.212 L 4277.73 3272.262 L 4277.87 3271.852 L 4278.14 3271.572 L 4278.42 3271.442 L 4278.82 3271.302 L 4279.51 3271.302 L 4279.92 3271.442 L 4280.19 3271.572 L 4280.46 3271.852 L 4280.6 3272.262 L 4280.6 3273.212 M 4277.73 3269.582 L 4277.87 3269.992 L 4278.28 3270.262 L 4278.96 3270.402 L 4279.37 3270.402 L 4280.05 3270.262 L 4280.46 3269.992 L 4280.6 3269.582 L 4280.6 3269.312 L 4280.46 3268.902 L 4280.05 3268.632 L 4279.37 3268.492 L 4278.96 3268.492 L 4278.28 3268.632 L 4277.87 3268.902 L 4277.73 3269.312 L 4277.73 3269.582" fill="none" layerid="3"  stroke-linecap="round" stroke-width="0.6" /><path d="M 4287.73 3273.212 L 4290.6 3273.212 M 4287.73 3273.212 L 4287.73 3272.262 L 4287.87 3271.852 L 4288.14 3271.572 L 4288.42 3271.442 L 4288.82 3271.302 L 4289.51 3271.302 L 4289.92 3271.442 L 4290.19 3271.572 L 4290.46 3271.852 L 4290.6 3272.262 L 4290.6 3273.212 M 4287.73 3268.762 L 4287.73 3270.132 L 4288.96 3270.262 L 4288.82 3270.132 L 4288.69 3269.722 L 4288.69 3269.312 L 4288.82 3268.902 L 4289.1 3268.632 L 4289.51 3268.492 L 4289.78 3268.492 L 4290.19 3268.632 L 4290.46 3268.902 L 4290.6 3269.312 L 4290.6 3269.722 L 4290.46 3270.132 L 4290.32 3270.262 L 4290.05 3270.402" fill="none" layerid="3"  stroke-linecap="round" stroke-width="0.6" /><path d="M 4297.73 3273.212 L 4300.6 3273.212 M 4297.73 3273.212 L 4297.73 3272.262 L 4297.87 3271.852 L 4298.14 3271.572 L 4298.42 3271.442 L 4298.82 3271.302 L 4299.51 3271.302 L 4299.92 3271.442 L 4300.19 3271.572 L 4300.46 3271.852 L 4300.6 3272.262 L 4300.6 3273.212 M 4298.14 3268.762 L 4297.87 3268.902 L 4297.73 3269.312 L 4297.73 3269.582 L 4297.87 3269.992 L 4298.28 3270.262 L 4298.96 3270.402 L 4299.64 3270.402 L 4300.19 3270.262 L 4300.46 3269.992 L 4300.6 3269.582 L 4300.6 3269.452 L 4300.46 3269.042 L 4300.19 3268.762 L 4299.78 3268.632 L 4299.64 3268.632 L 4299.23 3268.762 L 4298.96 3269.042 L 4298.82 3269.452 L 4298.82 3269.582 L 4298.96 3269.992 L 4299.23 3270.262 L 4299.64 3270.402" fill="none" layerid="3"  stroke-linecap="round" stroke-width="0.6" /><path d="M 4307.73 3273.212 L 4310.6 3273.212 M 4307.73 3273.212 L 4307.73 3272.262 L 4307.87 3271.852 L 4308.14 3271.572 L 4308.42 3271.442 L 4308.82 3271.302 L 4309.51 3271.302 L 4309.92 3271.442 L 4310.19 3271.572 L 4310.46 3271.852 L 4310.6 3272.262 L 4310.6 3273.212 M 4307.73 3268.492 L 4310.6 3269.862 M 4307.73 3270.402 L 4307.73 3268.492" fill="none" layerid="3"  stroke-linecap="round" stroke-width="0.6" /><path d="M 4317.73 3273.212 L 4320.6 3273.212 M 4317.73 3273.212 L 4317.73 3272.262 L 4317.87 3271.852 L 4318.14 3271.572 L 4318.42 3271.442 L 4318.82 3271.302 L 4319.51 3271.302 L 4319.92 3271.442 L 4320.19 3271.572 L 4320.46 3271.852 L 4320.6 3272.262 L 4320.6 3273.212 M 4317.73 3269.722 L 4317.87 3270.132 L 4318.14 3270.262 L 4318.42 3270.262 L 4318.69 3270.132 L 4318.82 3269.862 L 4318.96 3269.312 L 4319.1 3268.902 L 4319.37 3268.632 L 4319.64 3268.492 L 4320.05 3268.492 L 4320.32 3268.632 L 4320.46 3268.762 L 4320.6 3269.172 L 4320.6 3269.722 L 4320.46 3270.132 L 4320.32 3270.262 L 4320.05 3270.402 L 4319.64 3270.402 L 4319.37 3270.262 L 4319.1 3269.992 L 4318.96 3269.582 L 4318.82 3269.042 L 4318.69 3268.762 L 4318.42 3268.632 L 4318.14 3268.632 L 4317.87 3268.762 L 4317.73 3269.172 L 4317.73 3269.722" fill="none" layerid="3"  stroke-linecap="round" stroke-width="0.6" /><path d="M 4327.73 3272.942 L 4327.73 3271.442 L 4328.82 3272.262 L 4328.82 3271.852 L 4328.96 3271.572 L 4329.1 3271.442 L 4329.51 3271.302 L 4329.78 3271.302 L 4330.19 3271.442 L 4330.46 3271.712 L 4330.6 3272.122 L 4330.6 3272.532 L 4330.46 3272.942 L 4330.32 3273.072 L 4330.05 3273.212 M 4327.73 3270.402 L 4330.6 3269.312 M 4327.73 3268.222 L 4330.6 3269.312 M 4327.73 3267.052 L 4327.73 3265.552 L 4328.82 3266.362 L 4328.82 3265.962 L 4328.96 3265.682 L 4329.1 3265.552 L 4329.51 3265.412 L 4329.78 3265.412 L 4330.19 3265.552 L 4330.46 3265.822 L 4330.6 3266.232 L 4330.6 3266.642 L 4330.46 3267.052 L 4330.32 3267.182 L 4330.05 3267.322" fill="none" layerid="3"  stroke-linecap="round" stroke-width="0.6" /><path d="M 4327.37 3202.572 L 4327.37 3203.942 L 4328.6 3204.072 L 4328.46 3203.942 L 4328.33 3203.532 L 4328.33 3203.122 L 4328.46 3202.712 L 4328.74 3202.442 L 4329.15 3202.302 L 4329.42 3202.302 L 4329.83 3202.442 L 4330.1 3202.712 L 4330.24 3203.122 L 4330.24 3203.532 L 4330.1 3203.942 L 4329.96 3204.072 L 4329.69 3204.212 M 4327.37 3201.402 L 4330.24 3200.312 M 4327.37 3199.222 L 4330.24 3200.312" fill="none" layerid="3"  stroke-linecap="round" stroke-width="0.6" /><path d="M 4318.06 3205.162 L 4317.78 3205.302 L 4317.51 3205.572 L 4317.37 3205.852 L 4317.37 3206.392 L 4317.51 3206.662 L 4317.78 3206.942 L 4318.06 3207.072 L 4318.46 3207.212 L 4319.15 3207.212 L 4319.56 3207.072 L 4319.83 3206.942 L 4320.1 3206.662 L 4320.24 3206.392 L 4320.24 3205.852 L 4320.1 3205.572 L 4319.83 3205.302 L 4319.56 3205.162 L 4319.15 3205.162 M 4319.15 3205.852 L 4319.15 3205.162 M 4317.37 3204.262 L 4320.24 3204.262 M 4317.37 3204.262 L 4320.24 3202.362 M 4317.37 3202.362 L 4320.24 3202.362 M 4317.37 3201.462 L 4320.24 3201.462 M 4317.37 3201.462 L 4317.37 3200.502 L 4317.51 3200.092 L 4317.78 3199.822 L 4318.06 3199.682 L 4318.46 3199.552 L 4319.15 3199.552 L 4319.56 3199.682 L 4319.83 3199.822 L 4320.1 3200.092 L 4320.24 3200.502 L 4320.24 3201.462" fill="none" layerid="3"  stroke-linecap="round" stroke-width="0.6" /><path d="M 4307.37 3204.212 L 4310.24 3204.212 M 4307.37 3204.212 L 4307.37 3203.262 L 4307.51 3202.852 L 4307.78 3202.572 L 4308.06 3202.442 L 4308.46 3202.302 L 4309.15 3202.302 L 4309.56 3202.442 L 4309.83 3202.572 L 4310.1 3202.852 L 4310.24 3203.262 L 4310.24 3204.212 M 4307.37 3200.042 L 4309.28 3201.402 L 4309.28 3199.362 M 4307.37 3200.042 L 4310.24 3200.042" fill="none" layerid="3"  stroke-linecap="round" stroke-width="0.6" /><path d="M 4297.37 3204.212 L 4300.24 3204.212 M 4297.37 3204.212 L 4297.37 3203.262 L 4297.51 3202.852 L 4297.78 3202.572 L 4298.06 3202.442 L 4298.46 3202.302 L 4299.15 3202.302 L 4299.56 3202.442 L 4299.83 3202.572 L 4300.1 3202.852 L 4300.24 3203.262 L 4300.24 3204.212 M 4297.37 3201.132 L 4297.37 3199.632 L 4298.46 3200.452 L 4298.46 3200.042 L 4298.6 3199.762 L 4298.74 3199.632 L 4299.15 3199.492 L 4299.42 3199.492 L 4299.83 3199.632 L 4300.1 3199.902 L 4300.24 3200.312 L 4300.24 3200.722 L 4300.1 3201.132 L 4299.96 3201.262 L 4299.69 3201.402" fill="none" layerid="3"  stroke-linecap="round" stroke-width="0.6" /><path d="M 4287.37 3204.212 L 4290.24 3204.212 M 4287.37 3204.212 L 4287.37 3203.262 L 4287.51 3202.852 L 4287.78 3202.572 L 4288.06 3202.442 L 4288.46 3202.302 L 4289.15 3202.302 L 4289.56 3202.442 L 4289.83 3202.572 L 4290.1 3202.852 L 4290.24 3203.262 L 4290.24 3204.212 M 4288.06 3201.262 L 4287.92 3201.262 L 4287.65 3201.132 L 4287.51 3200.992 L 4287.37 3200.722 L 4287.37 3200.172 L 4287.51 3199.902 L 4287.65 3199.762 L 4287.92 3199.632 L 4288.19 3199.632 L 4288.46 3199.762 L 4288.87 3200.042 L 4290.24 3201.402 L 4290.24 3199.492" fill="none" layerid="3"  stroke-linecap="round" stroke-width="0.6" /><path d="M 4277.37 3203.212 L 4280.24 3203.212 M 4277.37 3203.212 L 4277.37 3202.262 L 4277.51 3201.852 L 4277.78 3201.572 L 4278.06 3201.442 L 4278.46 3201.302 L 4279.15 3201.302 L 4279.56 3201.442 L 4279.83 3201.572 L 4280.1 3201.852 L 4280.24 3202.262 L 4280.24 3203.212 M 4277.92 3200.402 L 4277.78 3200.132 L 4277.37 3199.722 L 4280.24 3199.722" fill="none" layerid="3"  stroke-linecap="round" stroke-width="0.6" /><path d="M 4267.37 3204.212 L 4270.24 3204.212 M 4267.37 3204.212 L 4267.37 3202.982 L 4267.51 3202.572 L 4267.65 3202.442 L 4267.92 3202.302 L 4268.19 3202.302 L 4268.46 3202.442 L 4268.6 3202.572 L 4268.74 3202.982 L 4268.74 3204.212 M 4268.74 3203.262 L 4270.24 3202.302 M 4267.37 3201.402 L 4270.24 3199.492 M 4267.37 3199.492 L 4270.24 3201.402" fill="none" layerid="3"  stroke-linecap="round" stroke-width="0.6" /><path d="M 4257.37 3203.262 L 4260.24 3203.262 M 4257.37 3204.212 L 4257.37 3202.302 M 4257.37 3201.402 L 4260.24 3199.492 M 4257.37 3199.492 L 4260.24 3201.402" fill="none" layerid="3"  stroke-linecap="round" stroke-width="0.6" /><path d="M 4239.19 3248.762 L 4243.01 3250.212 M 4239.19 3248.762 L 4243.01 3247.302 M 4241.73 3249.662 L 4241.73 3247.852 M 4239.19 3246.102 L 4243.01 3246.102 M 4239.19 3246.102 L 4243.01 3243.562 M 4239.19 3243.562 L 4243.01 3243.562 M 4239.19 3241.082 L 4243.01 3241.082 M 4239.19 3242.362 L 4239.19 3239.812 M 4239.19 3238.612 L 4243.01 3238.612 M 4239.19 3238.612 L 4239.19 3236.252 M 4241.01 3238.612 L 4241.01 3237.162 M 4243.01 3238.612 L 4243.01 3236.252 M 4239.19 3235.052 L 4243.01 3235.052 M 4239.19 3235.052 L 4243.01 3232.502 M 4239.19 3232.502 L 4243.01 3232.502 M 4239.19 3231.302 L 4243.01 3231.302 M 4239.19 3231.302 L 4243.01 3228.762 M 4239.19 3228.762 L 4243.01 3228.762 M 4239.19 3226.102 L 4243.01 3227.562 M 4239.19 3226.102 L 4243.01 3224.652 M 4241.73 3227.012 L 4241.73 3225.192" fill="none" layerid="3"  stroke-linecap="round" stroke-width="0.6" /><path d="M 4353.19 3247.212 L 4355.24 3247.212 L 4355.65 3247.072 L 4355.92 3246.802 L 4356.06 3246.392 L 4356.06 3246.122 L 4355.92 3245.712 L 4355.65 3245.442 L 4355.24 3245.302 L 4353.19 3245.302 M 4353.6 3242.492 L 4353.33 3242.762 L 4353.19 3243.172 L 4353.19 3243.722 L 4353.33 3244.132 L 4353.6 3244.402 L 4353.88 3244.402 L 4354.15 3244.262 L 4354.28 3244.132 L 4354.42 3243.862 L 4354.69 3243.042 L 4354.83 3242.762 L 4354.97 3242.632 L 4355.24 3242.492 L 4355.65 3242.492 L 4355.92 3242.762 L 4356.06 3243.172 L 4356.06 3243.722 L 4355.92 3244.132 L 4355.65 3244.402 M 4353.19 3241.592 L 4356.06 3241.592 M 4353.19 3241.592 L 4353.19 3240.362 L 4353.33 3239.962 L 4353.47 3239.822 L 4353.74 3239.682 L 4354.01 3239.682 L 4354.28 3239.822 L 4354.42 3239.962 L 4354.56 3240.362 M 4354.56 3241.592 L 4354.56 3240.362 L 4354.69 3239.962 L 4354.83 3239.822 L 4355.1 3239.682 L 4355.51 3239.682 L 4355.78 3239.822 L 4355.92 3239.962 L 4356.06 3240.362 L 4356.06 3241.592 M 4353.19 3236.682 L 4356.06 3236.682 M 4353.19 3236.682 L 4356.06 3235.592 M 4353.19 3234.502 L 4356.06 3235.592 M 4353.19 3234.502 L 4356.06 3234.502 M 4353.19 3233.602 L 4356.06 3233.602 M 4353.88 3230.662 L 4353.6 3230.792 L 4353.33 3231.062 L 4353.19 3231.342 L 4353.19 3231.882 L 4353.33 3232.162 L 4353.6 3232.432 L 4353.88 3232.562 L 4354.28 3232.702 L 4354.97 3232.702 L 4355.38 3232.562 L 4355.65 3232.432 L 4355.92 3232.162 L 4356.06 3231.882 L 4356.06 3231.342 L 4355.92 3231.062 L 4355.65 3230.792 L 4355.38 3230.662 M 4353.19 3229.762 L 4356.06 3229.762 M 4353.19 3229.762 L 4353.19 3228.532 L 4353.33 3228.122 L 4353.47 3227.982 L 4353.74 3227.852 L 4354.01 3227.852 L 4354.28 3227.982 L 4354.42 3228.122 L 4354.56 3228.532 L 4354.56 3229.762 M 4354.56 3228.802 L 4356.06 3227.852 M 4353.19 3226.132 L 4353.33 3226.402 L 4353.6 3226.672 L 4353.88 3226.812 L 4354.28 3226.952 L 4354.97 3226.952 L 4355.38 3226.812 L 4355.65 3226.672 L 4355.92 3226.402 L 4356.06 3226.132 L 4356.06 3225.582 L 4355.92 3225.312 L 4355.65 3225.042 L 4355.38 3224.902 L 4354.97 3224.762 L 4354.28 3224.762 L 4353.88 3224.902 L 4353.6 3225.042 L 4353.33 3225.312 L 4353.19 3225.582 L 4353.19 3226.132" fill="none" layerid="3"  stroke-linecap="round" stroke-width="0.6" /><path d="M 4356.19 3279.212 L 4356.19 3276.342 M 4356.19 3279.212 L 4354.96 3279.212 L 4354.55 3279.072 L 4354.42 3278.932 L 4354.28 3278.662 L 4354.28 3278.392 L 4354.42 3278.122 L 4354.55 3277.982 L 4354.96 3277.842 L 4356.19 3277.842 M 4355.24 3277.842 L 4354.28 3276.342 M 4353.38 3279.212 L 4353.38 3276.342 M 4353.38 3279.212 L 4351.61 3279.212 M 4353.38 3277.842 L 4352.29 3277.842 M 4353.38 3276.342 L 4351.61 3276.342 M 4348.8 3278.802 L 4349.07 3279.072 L 4349.48 3279.212 L 4350.03 3279.212 L 4350.44 3279.072 L 4350.71 3278.802 L 4350.71 3278.522 L 4350.57 3278.252 L 4350.44 3278.122 L 4350.16 3277.982 L 4349.34 3277.712 L 4349.07 3277.572 L 4348.94 3277.432 L 4348.8 3277.162 L 4348.8 3276.752 L 4349.07 3276.482 L 4349.48 3276.342 L 4350.03 3276.342 L 4350.44 3276.482 L 4350.71 3276.752 M 4347.9 3279.212 L 4347.9 3276.342 M 4347.9 3279.212 L 4346.13 3279.212 M 4347.9 3277.842 L 4346.81 3277.842 M 4347.9 3276.342 L 4346.13 3276.342 M 4344.27 3279.212 L 4344.27 3276.342 M 4345.23 3279.212 L 4343.32 3279.212 M 4354.28 3271.802 L 4354.55 3272.072 L 4354.96 3272.212 L 4355.51 3272.212 L 4355.92 3272.072 L 4356.19 3271.802 L 4356.19 3271.522 L 4356.05 3271.252 L 4355.92 3271.122 L 4355.64 3270.982 L 4354.83 3270.712 L 4354.55 3270.572 L 4354.42 3270.432 L 4354.28 3270.162 L 4354.28 3269.752 L 4354.55 3269.482 L 4354.96 3269.342 L 4355.51 3269.342 L 4355.92 3269.482 L 4356.19 3269.752 M 4353.38 3272.212 L 4352.7 3269.342 M 4352.02 3272.212 L 4352.7 3269.342 M 4352.02 3272.212 L 4351.34 3269.342 M 4350.65 3272.212 L 4351.34 3269.342 M 4349.75 3272.212 L 4349.75 3269.342 M 4347.9 3272.212 L 4347.9 3269.342 M 4348.85 3272.212 L 4346.94 3272.212 M 4344 3271.522 L 4344.14 3271.802 L 4344.41 3272.072 L 4344.68 3272.212 L 4345.23 3272.212 L 4345.5 3272.072 L 4345.77 3271.802 L 4345.91 3271.522 L 4346.04 3271.122 L 4346.04 3270.432 L 4345.91 3270.022 L 4345.77 3269.752 L 4345.5 3269.482 L 4345.23 3269.342 L 4344.68 3269.342 L 4344.41 3269.482 L 4344.14 3269.752 L 4344 3270.022 M 4343.1 3272.212 L 4343.1 3269.342 M 4341.19 3272.212 L 4341.19 3269.342 M 4343.1 3270.842 L 4341.19 3270.842" fill="none" layerid="3"  stroke-linecap="round" stroke-width="0.6" />      <g c_partid="part_pad" c_type="pinpart" layerid="11" c_etype="pinpart">  <polygon  points="4262.79 3274.732 4262.79 3287.692 4255.59 3287.692 4255.59 3274.732" stroke-linecap="round" stroke-width="0" />  <circle cx="4259.19" cy="3281.212" r="2" stroke-width="0" /></g>      <g c_partid="part_pad" c_type="pinpart" layerid="11" c_etype="pinpart">  <polygon  points="4325.59 3197.692 4325.59 3184.732 4332.79 3184.732 4332.79 3197.692" stroke-linecap="round" stroke-width="0" />  <circle cx="4329.19" cy="3191.212" r="2" stroke-width="0" /></g>      <g c_partid="part_pad" c_type="pinpart" layerid="11" c_etype="pinpart">  <polygon  points="4315.59 3197.692 4315.59 3184.732 4322.79 3184.732 4322.79 3197.692" stroke-linecap="round" stroke-width="0" />  <circle cx="4319.19" cy="3191.212" r="2" stroke-width="0" /></g>      <g c_partid="part_pad" c_type="pinpart" layerid="11" c_etype="pinpart">  <polygon  points="4305.59 3197.692 4305.59 3184.732 4312.79 3184.732 4312.79 3197.692" stroke-linecap="round" stroke-width="0" />  <circle cx="4309.19" cy="3191.212" r="2" stroke-width="0" /></g>      <g c_partid="part_pad" c_type="pinpart" layerid="11" c_etype="pinpart">  <polygon  points="4295.59 3197.692 4295.59 3184.732 4302.79 3184.732 4302.79 3197.692" stroke-linecap="round" stroke-width="0" />  <circle cx="4299.19" cy="3191.212" r="2" stroke-width="0" /></g>      <g c_partid="part_pad" c_type="pinpart" layerid="11" c_etype="pinpart">  <polygon  points="4285.59 3197.692 4285.59 3184.732 4292.79 3184.732 4292.79 3197.692" stroke-linecap="round" stroke-width="0" />  <circle cx="4289.19" cy="3191.212" r="2" stroke-width="0" /></g>      <g c_partid="part_pad" c_type="pinpart" layerid="11" c_etype="pinpart">  <polygon  points="4275.59 3197.692 4275.59 3184.732 4282.79 3184.732 4282.79 3197.692" stroke-linecap="round" stroke-width="0" />  <circle cx="4279.19" cy="3191.212" r="2" stroke-width="0" /></g>      <g c_partid="part_pad" c_type="pinpart" layerid="11" c_etype="pinpart">  <polygon  points="4265.59 3197.692 4265.59 3184.732 4272.79 3184.732 4272.79 3197.692" stroke-linecap="round" stroke-width="0" />  <circle cx="4269.19" cy="3191.212" r="2" stroke-width="0" /></g>      <g c_partid="part_pad" c_type="pinpart" layerid="11" c_etype="pinpart">  <polygon  points="4255.59 3197.692 4255.59 3184.732 4262.79 3184.732 4262.79 3197.692" stroke-linecap="round" stroke-width="0" />  <circle cx="4259.19" cy="3191.212" r="2" stroke-width="0" /></g>      <g c_partid="part_pad" c_type="pinpart" layerid="11" c_etype="pinpart">  <polygon  points="4332.79 3274.732 4332.79 3287.692 4325.59 3287.692 4325.59 3274.732" stroke-linecap="round" stroke-width="0" />  <circle cx="4329.19" cy="3281.212" r="2" stroke-width="0" /></g>      <g c_partid="part_pad" c_type="pinpart" layerid="11" c_etype="pinpart">  <polygon  points="4322.79 3274.732 4322.79 3287.692 4315.59 3287.692 4315.59 3274.732" stroke-linecap="round" stroke-width="0" />  <circle cx="4319.19" cy="3281.212" r="2" stroke-width="0" /></g>      <g c_partid="part_pad" c_type="pinpart" layerid="11" c_etype="pinpart">  <polygon  points="4312.79 3274.732 4312.79 3287.692 4305.59 3287.692 4305.59 3274.732" stroke-linecap="round" stroke-width="0" />  <circle cx="4309.19" cy="3281.212" r="2" stroke-width="0" /></g>      <g c_partid="part_pad" c_type="pinpart" layerid="11" c_etype="pinpart">  <polygon  points="4302.79 3274.732 4302.79 3287.692 4295.59 3287.692 4295.59 3274.732" stroke-linecap="round" stroke-width="0" />  <circle cx="4299.19" cy="3281.212" r="2" stroke-width="0" /></g>      <g c_partid="part_pad" c_type="pinpart" layerid="11" c_etype="pinpart">  <polygon  points="4292.79 3274.732 4292.79 3287.692 4285.59 3287.692 4285.59 3274.732" stroke-linecap="round" stroke-width="0" />  <circle cx="4289.19" cy="3281.212" r="2" stroke-width="0" /></g>      <g c_partid="part_pad" c_type="pinpart" layerid="11" c_etype="pinpart">  <polygon  points="4282.79 3274.732 4282.79 3287.692 4275.59 3287.692 4275.59 3274.732" stroke-linecap="round" stroke-width="0" />  <circle cx="4279.19" cy="3281.212" r="2" stroke-width="0" /></g>      <g c_partid="part_pad" c_type="pinpart" layerid="11" c_etype="pinpart">  <polygon  points="4272.79 3274.732 4272.79 3287.692 4265.59 3287.692 4265.59 3274.732" stroke-linecap="round" stroke-width="0" />  <circle cx="4269.19" cy="3281.212" r="2" stroke-width="0" /></g><path d="M 4377.6714 3190.044 L 4377.6714 3194.334 M 4377.6714 3190.044 L 4379.1014 3190.044 L 4379.7214 3190.244 L 4380.1214 3190.654 L 4380.3314 3191.064 L 4380.5314 3191.674 L 4380.5314 3192.694 L 4380.3314 3193.314 L 4380.1214 3193.724 L 4379.7214 3194.134 L 4379.1014 3194.334 L 4377.6714 3194.334 M 4381.8814 3190.854 L 4382.2914 3190.654 L 4382.9114 3190.044 L 4382.9114 3194.334" fill="none" layerid="3"  stroke-linecap="round" stroke-width="0.7" /> <polyline points="4372.794 3204.448 4388.067 3219.721" stroke-width="1"   stroke-linecap="round" fill="none" layerid="3"/> <polyline points="4388.067 3219.721 4406.735 3201.054" stroke-width="1"   stroke-linecap="round" fill="none" layerid="3"/> <polyline points="4406.735 3201.054 4391.462 3185.78" stroke-width="1"   stroke-linecap="round" fill="none" layerid="3"/> <polyline points="4391.462 3185.78 4372.794 3204.448" stroke-width="1"   stroke-linecap="round" fill="none" layerid="3"/>      <circle cx="4374.986" cy="3208.903" r="1" layerid="3" stroke-width="1" fill="none" />      <g c_partid="part_pad" c_type="pinpart" layerid="1" c_etype="pinpart">  <polygon  points="4375.039 3205.781 4379.218 3201.602 4382.004 3204.388 4377.825 3208.567" stroke-linecap="round" stroke-width="0" /></g>      <g c_partid="part_pad" c_type="pinpart" layerid="1" c_etype="pinpart">  <polygon  points="4388.616 3192.204 4392.795 3188.025 4395.581 3190.811 4391.402 3194.99" stroke-linecap="round" stroke-width="0" /></g>      <g c_partid="part_pad" c_type="pinpart" layerid="1" c_etype="pinpart">  <polygon  points="4397.525 3201.114 4401.704 3196.935 4404.49 3199.721 4400.311 3203.9" stroke-linecap="round" stroke-width="0" /></g>      <g c_partid="part_pad" c_type="pinpart" layerid="1" c_etype="pinpart">  <polygon  points="4383.949 3214.69 4388.128 3210.511 4390.914 3213.297 4386.735 3217.476" stroke-linecap="round" stroke-width="0" /></g><path d="M 4425.948 3276.9847 L 4425.948 3281.2747 M 4425.948 3276.9847 L 4427.3779 3276.9847 L 4427.9979 3277.1847 L 4428.3979 3277.5948 L 4428.6079 3278.0047 L 4428.8079 3278.6148 L 4428.8079 3279.6348 L 4428.6079 3280.2547 L 4428.3979 3280.6647 L 4427.9979 3281.0748 L 4427.3779 3281.2747 L 4425.948 3281.2747 M 4430.368 3278.0047 L 4430.368 3277.7947 L 4430.568 3277.3848 L 4430.778 3277.1847 L 4431.1879 3276.9847 L 4431.9979 3276.9847 L 4432.408 3277.1847 L 4432.618 3277.3848 L 4432.818 3277.7947 L 4432.818 3278.2047 L 4432.618 3278.6148 L 4432.2079 3279.2347 L 4430.158 3281.2747 L 4433.028 3281.2747" fill="none" layerid="3"  stroke-linecap="round" stroke-width="0.7" /> <polyline points="4414.05 3284.435 4414.05 3306.034" stroke-width="1"   stroke-linecap="round" fill="none" layerid="3"/> <polyline points="4414.05 3306.034 4440.451 3306.034" stroke-width="1"   stroke-linecap="round" fill="none" layerid="3"/> <polyline points="4440.451 3306.034 4440.451 3284.435" stroke-width="1"   stroke-linecap="round" fill="none" layerid="3"/> <polyline points="4440.451 3284.435 4414.05 3284.435" stroke-width="1"   stroke-linecap="round" fill="none" layerid="3"/>      <circle cx="4412.45" cy="3289.134" r="1" layerid="3" stroke-width="1" fill="none" />      <g c_partid="part_pad" c_type="pinpart" layerid="1" c_etype="pinpart">  <polygon  points="4414.696 3286.965 4420.606 3286.965 4420.606 3290.905 4414.696 3290.905" stroke-linecap="round" stroke-width="0" /></g>      <g c_partid="part_pad" c_type="pinpart" layerid="1" c_etype="pinpart">  <polygon  points="4433.896 3286.965 4439.806 3286.965 4439.806 3290.905 4433.896 3290.905" stroke-linecap="round" stroke-width="0" /></g>      <g c_partid="part_pad" c_type="pinpart" layerid="1" c_etype="pinpart">  <polygon  points="4433.896 3299.565 4439.806 3299.565 4439.806 3303.505 4433.896 3303.505" stroke-linecap="round" stroke-width="0" /></g>      <g c_partid="part_pad" c_type="pinpart" layerid="1" c_etype="pinpart">  <polygon  points="4414.696 3299.565 4420.606 3299.565 4420.606 3303.505 4414.696 3303.505" stroke-linecap="round" stroke-width="0" /></g><path d="M 4398.0475 3373.2515 L 4398.0475 3377.5415 M 4398.0475 3373.2515 L 4399.4775 3373.2515 L 4400.0975 3373.4515 L 4400.4975 3373.8615 L 4400.7075 3374.2715 L 4400.9075 3374.8815 L 4400.9075 3375.9015 L 4400.7075 3376.5215 L 4400.4975 3376.9315 L 4400.0975 3377.3415 L 4399.4775 3377.5415 L 4398.0475 3377.5415 M 4402.6675 3373.2515 L 4404.9175 3373.2515 L 4403.6975 3374.8815 L 4404.3075 3374.8815 L 4404.7175 3375.0915 L 4404.9175 3375.2915 L 4405.1275 3375.9015 L 4405.1275 3376.3115 L 4404.9175 3376.9315 L 4404.5075 3377.3415 L 4403.8975 3377.5415 L 4403.2875 3377.5415 L 4402.6675 3377.3415 L 4402.4675 3377.1315 L 4402.2575 3376.7215" fill="none" layerid="3"  stroke-linecap="round" stroke-width="0.7" /> <polyline points="4386.099 3370.826 4370.825 3386.1" stroke-width="1"   stroke-linecap="round" fill="none" layerid="3"/> <polyline points="4370.825 3386.1 4389.493 3404.767" stroke-width="1"   stroke-linecap="round" fill="none" layerid="3"/> <polyline points="4389.493 3404.767 4404.766 3389.494" stroke-width="1"   stroke-linecap="round" fill="none" layerid="3"/> <polyline points="4404.766 3389.494 4386.099 3370.826" stroke-width="1"   stroke-linecap="round" fill="none" layerid="3"/>      <circle cx="4381.644" cy="3373.018" r="1" layerid="3" stroke-width="1" fill="none" />      <g c_partid="part_pad" c_type="pinpart" layerid="1" c_etype="pinpart">  <polygon  points="4384.766 3373.071 4388.945 3377.25 4386.159 3380.036 4381.98 3375.857" stroke-linecap="round" stroke-width="0" /></g>      <g c_partid="part_pad" c_type="pinpart" layerid="1" c_etype="pinpart">  <polygon  points="4398.342 3386.648 4402.521 3390.827 4399.735 3393.613 4395.556 3389.434" stroke-linecap="round" stroke-width="0" /></g>      <g c_partid="part_pad" c_type="pinpart" layerid="1" c_etype="pinpart">  <polygon  points="4389.433 3395.557 4393.612 3399.736 4390.826 3402.522 4386.647 3398.343" stroke-linecap="round" stroke-width="0" /></g>      <g c_partid="part_pad" c_type="pinpart" layerid="1" c_etype="pinpart">  <polygon  points="4375.856 3381.981 4380.035 3386.16 4377.249 3388.946 4373.07 3384.767" stroke-linecap="round" stroke-width="0" /></g><path d="M 4308.63 3425.8505 L 4312.92 3425.8505 M 4308.63 3425.8505 L 4308.63 3424.4205 L 4308.83 3423.8005 L 4309.24 3423.4005 L 4309.65 3423.1905 L 4310.26 3422.9905 L 4311.28 3422.9905 L 4311.9 3423.1905 L 4312.31 3423.4005 L 4312.72 3423.8005 L 4312.92 3424.4205 L 4312.92 3425.8505 M 4308.63 3419.5905 L 4311.49 3421.6405 L 4311.49 3418.5705 M 4308.63 3419.5905 L 4312.92 3419.5905" fill="none" layerid="3"  stroke-linecap="round" stroke-width="0.7" /> <polyline points="4306.08 3413.96 4284.48 3413.96" stroke-width="1"   stroke-linecap="round" fill="none" layerid="3"/> <polyline points="4284.48 3413.96 4284.48 3440.361" stroke-width="1"   stroke-linecap="round" fill="none" layerid="3"/> <polyline points="4284.48 3440.361 4306.08 3440.361" stroke-width="1"   stroke-linecap="round" fill="none" layerid="3"/> <polyline points="4306.08 3440.361 4306.08 3413.96" stroke-width="1"   stroke-linecap="round" fill="none" layerid="3"/>      <circle cx="4301.38" cy="3412.3605" r="1" layerid="3" stroke-width="1" fill="none" />      <g c_partid="part_pad" c_type="pinpart" layerid="1" c_etype="pinpart">  <polygon  points="4303.55 3414.606 4303.55 3420.516 4299.61 3420.516 4299.61 3414.606" stroke-linecap="round" stroke-width="0" /></g>      <g c_partid="part_pad" c_type="pinpart" layerid="1" c_etype="pinpart">  <polygon  points="4303.55 3433.806 4303.55 3439.716 4299.61 3439.716 4299.61 3433.806" stroke-linecap="round" stroke-width="0" /></g>      <g c_partid="part_pad" c_type="pinpart" layerid="1" c_etype="pinpart">  <polygon  points="4290.95 3433.806 4290.95 3439.716 4287.01 3439.716 4287.01 3433.806" stroke-linecap="round" stroke-width="0" /></g>      <g c_partid="part_pad" c_type="pinpart" layerid="1" c_etype="pinpart">  <polygon  points="4290.95 3414.606 4290.95 3420.516 4287.01 3420.516 4287.01 3414.606" stroke-linecap="round" stroke-width="0" /></g><path d="M 4217.0915 3398.803 L 4217.0915 3403.093 M 4217.0915 3398.803 L 4218.5215 3398.803 L 4219.1415 3399.003 L 4219.5415 3399.413 L 4219.7515 3399.823 L 4219.9515 3400.433 L 4219.9515 3401.453 L 4219.7515 3402.073 L 4219.5415 3402.483 L 4219.1415 3402.893 L 4218.5215 3403.093 L 4217.0915 3403.093 M 4223.7615 3398.803 L 4221.7115 3398.803 L 4221.5115 3400.643 L 4221.7115 3400.433 L 4222.3315 3400.233 L 4222.9415 3400.233 L 4223.5515 3400.433 L 4223.9615 3400.843 L 4224.1715 3401.453 L 4224.1715 3401.863 L 4223.9615 3402.483 L 4223.5515 3402.893 L 4222.9415 3403.093 L 4222.3315 3403.093 L 4221.7115 3402.893 L 4221.5115 3402.683 L 4221.3015 3402.273" fill="none" layerid="3"  stroke-linecap="round" stroke-width="0.7" /> <polyline points="4221.969 3389.299 4206.695 3374.025" stroke-width="1"   stroke-linecap="round" fill="none" layerid="3"/> <polyline points="4206.695 3374.025 4188.028 3392.693" stroke-width="1"   stroke-linecap="round" fill="none" layerid="3"/> <polyline points="4188.028 3392.693 4203.301 3407.966" stroke-width="1"   stroke-linecap="round" fill="none" layerid="3"/> <polyline points="4203.301 3407.966 4221.969 3389.299" stroke-width="1"   stroke-linecap="round" fill="none" layerid="3"/>      <circle cx="4219.777" cy="3384.844" r="1" layerid="3" stroke-width="1" fill="none" />      <g c_partid="part_pad" c_type="pinpart" layerid="1" c_etype="pinpart">  <polygon  points="4219.724 3387.966 4215.545 3392.145 4212.759 3389.359 4216.938 3385.18" stroke-linecap="round" stroke-width="0" /></g>      <g c_partid="part_pad" c_type="pinpart" layerid="1" c_etype="pinpart">  <polygon  points="4206.147 3401.542 4201.968 3405.721 4199.182 3402.935 4203.361 3398.756" stroke-linecap="round" stroke-width="0" /></g>      <g c_partid="part_pad" c_type="pinpart" layerid="1" c_etype="pinpart">  <polygon  points="4197.238 3392.633 4193.059 3396.812 4190.273 3394.026 4194.452 3389.847" stroke-linecap="round" stroke-width="0" /></g>      <g c_partid="part_pad" c_type="pinpart" layerid="1" c_etype="pinpart">  <polygon  points="4210.814 3379.056 4206.635 3383.235 4203.849 3380.449 4208.028 3376.27" stroke-linecap="round" stroke-width="0" /></g><path d="M 4166.3 3308.35 L 4166.3 3312.64 M 4166.3 3308.35 L 4167.73 3308.35 L 4168.35 3308.55 L 4168.75 3308.96 L 4168.96 3309.37 L 4169.16 3309.98 L 4169.16 3311 L 4168.96 3311.62 L 4168.75 3312.03 L 4168.35 3312.44 L 4167.73 3312.64 L 4166.3 3312.64 M 4172.97 3308.96 L 4172.76 3308.55 L 4172.15 3308.35 L 4171.74 3308.35 L 4171.13 3308.55 L 4170.72 3309.16 L 4170.51 3310.19 L 4170.51 3311.21 L 4170.72 3312.03 L 4171.13 3312.44 L 4171.74 3312.64 L 4171.95 3312.64 L 4172.56 3312.44 L 4172.97 3312.03 L 4173.17 3311.41 L 4173.17 3311.21 L 4172.97 3310.6 L 4172.56 3310.19 L 4171.95 3309.98 L 4171.74 3309.98 L 4171.13 3310.19 L 4170.72 3310.6 L 4170.51 3311.21" fill="none" layerid="3"  stroke-linecap="round" stroke-width="0.7" /> <polyline points="4178.2 3305.8 4178.2 3284.2" stroke-width="1"   stroke-linecap="round" fill="none" layerid="3"/> <polyline points="4178.2 3284.2 4151.8 3284.2" stroke-width="1"   stroke-linecap="round" fill="none" layerid="3"/> <polyline points="4151.8 3284.2 4151.8 3305.8" stroke-width="1"   stroke-linecap="round" fill="none" layerid="3"/> <polyline points="4151.8 3305.8 4178.2 3305.8" stroke-width="1"   stroke-linecap="round" fill="none" layerid="3"/>      <circle cx="4179.8" cy="3301.1" r="1" layerid="3" stroke-width="1" fill="none" />      <g c_partid="part_pad" c_type="pinpart" layerid="1" c_etype="pinpart">  <polygon  points="4177.555 3303.27 4171.645 3303.27 4171.645 3299.33 4177.555 3299.33" stroke-linecap="round" stroke-width="0" /></g>      <g c_partid="part_pad" c_type="pinpart" layerid="1" c_etype="pinpart">  <polygon  points="4158.355 3303.27 4152.445 3303.27 4152.445 3299.33 4158.355 3299.33" stroke-linecap="round" stroke-width="0" /></g>      <g c_partid="part_pad" c_type="pinpart" layerid="1" c_etype="pinpart">  <polygon  points="4158.355 3290.67 4152.445 3290.67 4152.445 3286.73 4158.355 3286.73" stroke-linecap="round" stroke-width="0" /></g>      <g c_partid="part_pad" c_type="pinpart" layerid="1" c_etype="pinpart">  <polygon  points="4177.555 3290.67 4171.645 3290.67 4171.645 3286.73 4177.555 3286.73" stroke-linecap="round" stroke-width="0" /></g><path d="M 4190.0565 3212.866 L 4194.3465 3212.866 M 4190.0565 3212.866 L 4190.0565 3211.436 L 4190.2565 3210.816 L 4190.6665 3210.416 L 4191.0765 3210.206 L 4191.6865 3210.006 L 4192.7065 3210.006 L 4193.3265 3210.206 L 4193.7365 3210.416 L 4194.1465 3210.816 L 4194.3465 3211.436 L 4194.3465 3212.866 M 4190.0565 3205.786 L 4194.3465 3207.836 M 4190.0565 3208.656 L 4190.0565 3205.786" fill="none" layerid="3"  stroke-linecap="round" stroke-width="0.7" /> <polyline points="4204.454 3217.75 4219.728 3202.477" stroke-width="1"   stroke-linecap="round" fill="none" layerid="3"/> <polyline points="4219.728 3202.477 4201.06 3183.809" stroke-width="1"   stroke-linecap="round" fill="none" layerid="3"/> <polyline points="4201.06 3183.809 4185.787 3199.083" stroke-width="1"   stroke-linecap="round" fill="none" layerid="3"/> <polyline points="4185.787 3199.083 4204.454 3217.75" stroke-width="1"   stroke-linecap="round" fill="none" layerid="3"/>      <circle cx="4208.909" cy="3215.558" r="1" layerid="3" stroke-width="1" fill="none" />      <g c_partid="part_pad" c_type="pinpart" layerid="1" c_etype="pinpart">  <polygon  points="4205.787 3215.505 4201.608 3211.326 4204.394 3208.54 4208.573 3212.719" stroke-linecap="round" stroke-width="0" /></g>      <g c_partid="part_pad" c_type="pinpart" layerid="1" c_etype="pinpart">  <polygon  points="4192.21 3201.929 4188.031 3197.75 4190.817 3194.964 4194.996 3199.143" stroke-linecap="round" stroke-width="0" /></g>      <g c_partid="part_pad" c_type="pinpart" layerid="1" c_etype="pinpart">  <polygon  points="4201.12 3193.019 4196.941 3188.84 4199.727 3186.054 4203.906 3190.233" stroke-linecap="round" stroke-width="0" /></g>      <g c_partid="part_pad" c_type="pinpart" layerid="1" c_etype="pinpart">  <polygon  points="4214.696 3206.596 4210.517 3202.417 4213.303 3199.631 4217.482 3203.81" stroke-linecap="round" stroke-width="0" /></g><path d="M 4277.0302 3164.6921 L 4281.3202 3164.6921 M 4277.0302 3164.6921 L 4277.0302 3163.2621 L 4277.2302 3162.6421 L 4277.6402 3162.2421 L 4278.0502 3162.0321 L 4278.6602 3161.8321 L 4279.6802 3161.8321 L 4280.3002 3162.0321 L 4280.7102 3162.2421 L 4281.1202 3162.6421 L 4281.3202 3163.2621 L 4281.3202 3164.6921 M 4277.0302 3159.4521 L 4277.2302 3160.0721 L 4277.6402 3160.2721 L 4278.0502 3160.2721 L 4278.4602 3160.0721 L 4278.6602 3159.6621 L 4278.8702 3158.8421 L 4279.0702 3158.2321 L 4279.4802 3157.8221 L 4279.8902 3157.6121 L 4280.5002 3157.6121 L 4280.9102 3157.8221 L 4281.1202 3158.0221 L 4281.3202 3158.6421 L 4281.3202 3159.4521 L 4281.1202 3160.0721 L 4280.9102 3160.2721 L 4280.5002 3160.4821 L 4279.8902 3160.4821 L 4279.4802 3160.2721 L 4279.0702 3159.8621 L 4278.8702 3159.2521 L 4278.6602 3158.4321 L 4278.4602 3158.0221 L 4278.0502 3157.8221 L 4277.6402 3157.8221 L 4277.2302 3158.0221 L 4277.0302 3158.6421 L 4277.0302 3159.4521" fill="none" layerid="3"  stroke-linecap="round" stroke-width="0.7" /> <polyline points="4284.48 3176.59 4306.08 3176.59" stroke-width="1"   stroke-linecap="round" fill="none" layerid="3"/> <polyline points="4306.08 3176.59 4306.08 3150.189" stroke-width="1"   stroke-linecap="round" fill="none" layerid="3"/> <polyline points="4306.08 3150.189 4284.48 3150.189" stroke-width="1"   stroke-linecap="round" fill="none" layerid="3"/> <polyline points="4284.48 3150.189 4284.48 3176.59" stroke-width="1"   stroke-linecap="round" fill="none" layerid="3"/>      <circle cx="4289.18" cy="3178.1895" r="1" layerid="3" stroke-width="1" fill="none" />      <g c_partid="part_pad" c_type="pinpart" layerid="1" c_etype="pinpart">  <polygon  points="4287.01 3175.945 4287.01 3170.035 4290.95 3170.035 4290.95 3175.945" stroke-linecap="round" stroke-width="0" /></g>      <g c_partid="part_pad" c_type="pinpart" layerid="1" c_etype="pinpart">  <polygon  points="4287.01 3156.745 4287.01 3150.835 4290.95 3150.835 4290.95 3156.745" stroke-linecap="round" stroke-width="0" /></g>      <g c_partid="part_pad" c_type="pinpart" layerid="1" c_etype="pinpart">  <polygon  points="4299.61 3156.745 4299.61 3150.835 4303.55 3150.835 4303.55 3156.745" stroke-linecap="round" stroke-width="0" /></g>      <g c_partid="part_pad" c_type="pinpart" layerid="1" c_etype="pinpart">  <polygon  points="4299.61 3175.945 4299.61 3170.035 4303.55 3170.035 4303.55 3175.945" stroke-linecap="round" stroke-width="0" /></g><path d="M 4295.235 3322.816 L 4295.235 3325.876 L 4295.445 3326.496 L 4295.855 3326.906 L 4296.465 3327.106 L 4296.875 3327.106 L 4297.485 3326.906 L 4297.895 3326.496 L 4298.105 3325.876 L 4298.105 3322.816 M 4299.655 3323.836 L 4299.655 3323.626 L 4299.865 3323.216 L 4300.065 3323.016 L 4300.475 3322.816 L 4301.295 3322.816 L 4301.705 3323.016 L 4301.905 3323.216 L 4302.115 3323.626 L 4302.115 3324.036 L 4301.905 3324.446 L 4301.495 3325.066 L 4299.455 3327.106 L 4302.315 3327.106" fill="none" layerid="3"  stroke-linecap="round" stroke-width="0.7" /> <polyline points="4282.075 3332.566 4308.575 3332.566" stroke-width="0.79"   stroke-linecap="round" fill="none" layerid="3"/> <polyline points="4281.975 3348.966 4308.575 3348.966" stroke-width="0.79"   stroke-linecap="round" fill="none" layerid="3"/> <polyline points="4308.375 3330.266 4282.075 3330.266" stroke-width="1"   stroke-linecap="round" fill="none" layerid="3"/> <polyline points="4281.975 3330.266 4281.975 3348.866" stroke-width="1"   stroke-linecap="round" fill="none" layerid="3"/> <polyline points="4308.575 3330.266 4308.575 3348.866" stroke-width="1"   stroke-linecap="round" fill="none" layerid="3"/><path d="M 4284.192 3351.886 L 4284.732 3351.616 L 4285.532 3350.816 L 4285.532 3356.456" fill="none" layerid="3"  stroke-linecap="round" stroke-width="0.59" /><path d="M 4293.878 3351.656 L 4293.878 3351.386 L 4294.148 3350.846 L 4294.418 3350.586 L 4294.948 3350.316 L 4296.028 3350.316 L 4296.568 3350.586 L 4296.828 3350.846 L 4297.098 3351.386 L 4297.098 3351.926 L 4296.828 3352.466 L 4296.298 3353.266 L 4293.608 3355.956 L 4297.368 3355.956" fill="none" layerid="3"  stroke-linecap="round" stroke-width="0.59" /><path d="M 4304.148 3350.983 L 4307.098 3350.983 L 4305.488 3353.133 L 4306.298 3353.133 L 4306.828 3353.393 L 4307.098 3353.663 L 4307.368 3354.473 L 4307.368 3355.013 L 4307.098 3355.813 L 4306.568 3356.353 L 4305.758 3356.623 L 4304.948 3356.623 L 4304.148 3356.353 L 4303.878 3356.083 L 4303.608 3355.543" fill="none" layerid="3"  stroke-linecap="round" stroke-width="0.59" />      <g c_partid="part_pad" c_type="pinpart" layerid="11" c_etype="pinpart">  <ellipse  xmlns="http://www.w3.org/2000/svg" cx="4285.08" cy="3342.37" rx="3.175" ry="3.175" stroke-width="0"  />  <circle cx="4285.08" cy="3342.37" r="1.378" stroke-width="0" /></g>      <g c_partid="part_pad" c_type="pinpart" layerid="11" c_etype="pinpart">  <polygon  points="4291.9 3339.191 4298.25 3339.191 4298.25 3345.541 4291.9 3345.541" stroke-linecap="round" stroke-width="0" />  <circle cx="4295.075" cy="3342.366" r="1.378" stroke-width="0" /></g>      <g c_partid="part_pad" c_type="pinpart" layerid="11" c_etype="pinpart">  <ellipse  xmlns="http://www.w3.org/2000/svg" cx="4305.08" cy="3342.37" rx="3.175" ry="3.175" stroke-width="0"  />  <circle cx="4305.08" cy="3342.37" r="1.378" stroke-width="0" /></g><path d="M 4424.2094 3393.4677 L 4424.2094 3397.7577 M 4424.2094 3393.4677 L 4426.0494 3393.4677 L 4426.6594 3393.6677 L 4426.8694 3393.8677 L 4427.0694 3394.2777 L 4427.0694 3394.8977 L 4426.8694 3395.3077 L 4426.6594 3395.5077 L 4426.0494 3395.7177 L 4424.2094 3395.7177 M 4428.4194 3394.2777 L 4428.8294 3394.0777 L 4429.4494 3393.4677 L 4429.4494 3397.7577" fill="none" layerid="3"  stroke-linecap="round" stroke-width="0.7" /> <polyline points="4418.901 3408.291 4424.204 3402.987 4417.133 3395.916 4395.92 3417.129 4402.991 3424.201" stroke-width="0.8"   stroke-linecap="round" fill="none" layerid="3"/> <polyline points="4402.991 3424.201 4418.901 3408.291" stroke-width="0.79921"   stroke-linecap="round" fill="none" layerid="3"/>      <g c_partid="part_pad" c_type="pinpart" layerid="11" c_etype="pinpart">  <ellipse  xmlns="http://www.w3.org/2000/svg" cx="4403" cy="3417.13" rx="3.1" ry="3.1" stroke-width="0"  />  <circle cx="4403" cy="3417.13" r="1.75" stroke-width="0" /></g>      <g c_partid="part_pad" c_type="pinpart" layerid="11" c_etype="pinpart">  <ellipse  xmlns="http://www.w3.org/2000/svg" cx="4410.06" cy="3410.06" rx="3.1" ry="3.1" stroke-width="0"  />  <circle cx="4410.06" cy="3410.06" r="1.75" stroke-width="0" /></g>      <g c_partid="part_pad" c_type="pinpart" layerid="11" c_etype="pinpart">  <polygon  points="4421.517 3402.987 4417.133 3407.372 4412.749 3402.987 4417.133 3398.603" stroke-linecap="round" stroke-width="0" />  <circle cx="4417.133" cy="3402.988" r="1.75" stroke-width="0" /></g><path d="M 4312.8313 3458.6513 L 4317.1213 3458.6513 M 4312.8313 3458.6513 L 4312.8313 3456.8113 L 4313.0313 3456.2013 L 4313.2313 3455.9913 L 4313.6413 3455.7913 L 4314.2613 3455.7913 L 4314.6713 3455.9913 L 4314.8713 3456.2013 L 4315.0813 3456.8113 L 4315.0813 3458.6513 M 4312.8313 3454.0313 L 4312.8313 3451.7813 L 4314.4613 3453.0013 L 4314.4613 3452.3913 L 4314.6713 3451.9813 L 4314.8713 3451.7813 L 4315.4813 3451.5713 L 4315.8913 3451.5713 L 4316.5113 3451.7813 L 4316.9213 3452.1913 L 4317.1213 3452.8013 L 4317.1213 3453.4113 L 4316.9213 3454.0313 L 4316.7113 3454.2313 L 4316.3013 3454.4413" fill="none" layerid="3"  stroke-linecap="round" stroke-width="0.7" /> <polyline points="4302.78 3463.65 4310.28 3463.65 4310.28 3453.65 4280.28 3453.65 4280.28 3463.65" stroke-width="0.8"   stroke-linecap="round" fill="none" layerid="3"/> <polyline points="4280.28 3463.65 4302.78 3463.65" stroke-width="0.79921"   stroke-linecap="round" fill="none" layerid="3"/>      <g c_partid="part_pad" c_type="pinpart" layerid="11" c_etype="pinpart">  <ellipse  xmlns="http://www.w3.org/2000/svg" cx="4285.27" cy="3458.65" rx="3.1" ry="3.1" stroke-width="0"  />  <circle cx="4285.27" cy="3458.65" r="1.75" stroke-width="0" /></g>      <g c_partid="part_pad" c_type="pinpart" layerid="11" c_etype="pinpart">  <ellipse  xmlns="http://www.w3.org/2000/svg" cx="4295.27" cy="3458.65" rx="3.1" ry="3.1" stroke-width="0"  />  <circle cx="4295.27" cy="3458.65" r="1.75" stroke-width="0" /></g>      <g c_partid="part_pad" c_type="pinpart" layerid="11" c_etype="pinpart">  <polygon  points="4308.38 3461.751 4302.18 3461.751 4302.18 3455.551 4308.38 3455.551" stroke-linecap="round" stroke-width="0" />  <circle cx="4305.28" cy="3458.65" r="1.75" stroke-width="0" /></g><path d="M 4196.8643 3424.966 L 4196.8643 3429.256 M 4196.8643 3424.966 L 4198.7043 3424.966 L 4199.3143 3425.166 L 4199.5243 3425.366 L 4199.7243 3425.776 L 4199.7243 3426.396 L 4199.5243 3426.806 L 4199.3143 3427.006 L 4198.7043 3427.216 L 4196.8643 3427.216 M 4203.1243 3424.966 L 4201.0743 3427.826 L 4204.1443 3427.826 M 4203.1243 3424.966 L 4203.1243 3429.256" fill="none" layerid="3"  stroke-linecap="round" stroke-width="0.7" /> <polyline points="4184.501 3422.107 4189.805 3427.41 4196.875 3420.339 4175.663 3399.126 4168.591 3406.197" stroke-width="0.8"   stroke-linecap="round" fill="none" layerid="3"/> <polyline points="4168.591 3406.197 4184.501 3422.107" stroke-width="0.79921"   stroke-linecap="round" fill="none" layerid="3"/>      <g c_partid="part_pad" c_type="pinpart" layerid="11" c_etype="pinpart">  <ellipse  xmlns="http://www.w3.org/2000/svg" cx="4175.66" cy="3406.2" rx="3.1" ry="3.1" stroke-width="0"  />  <circle cx="4175.66" cy="3406.2" r="1.75" stroke-width="0" /></g>      <g c_partid="part_pad" c_type="pinpart" layerid="11" c_etype="pinpart">  <ellipse  xmlns="http://www.w3.org/2000/svg" cx="4182.73" cy="3413.27" rx="3.1" ry="3.1" stroke-width="0"  />  <circle cx="4182.73" cy="3413.27" r="1.75" stroke-width="0" /></g>      <g c_partid="part_pad" c_type="pinpart" layerid="11" c_etype="pinpart">  <polygon  points="4189.805 3424.723 4185.421 3420.339 4189.805 3415.955 4194.189 3420.339" stroke-linecap="round" stroke-width="0" />  <circle cx="4189.805" cy="3420.339" r="1.75" stroke-width="0" /></g><path d="M 4133.4992 3312.5577 L 4133.4992 3316.8477 M 4133.4992 3312.5577 L 4135.3392 3312.5577 L 4135.9492 3312.7577 L 4136.1592 3312.9577 L 4136.3592 3313.3677 L 4136.3592 3313.9877 L 4136.1592 3314.3977 L 4135.9492 3314.5977 L 4135.3392 3314.8077 L 4133.4992 3314.8077 M 4140.1692 3312.5577 L 4138.1192 3312.5577 L 4137.9192 3314.3977 L 4138.1192 3314.1877 L 4138.7392 3313.9877 L 4139.3492 3313.9877 L 4139.9592 3314.1877 L 4140.3692 3314.5977 L 4140.5792 3315.2077 L 4140.5792 3315.6177 L 4140.3692 3316.2377 L 4139.9592 3316.6477 L 4139.3492 3316.8477 L 4138.7392 3316.8477 L 4138.1192 3316.6477 L 4137.9192 3316.4377 L 4137.7092 3316.0277" fill="none" layerid="3"  stroke-linecap="round" stroke-width="0.7" /> <polyline points="4128.5 3302.5 4128.5 3310 4138.5 3310 4138.5 3280 4128.5 3280" stroke-width="0.8"   stroke-linecap="round" fill="none" layerid="3"/> <polyline points="4128.5 3280 4128.5 3302.5" stroke-width="0.79921"   stroke-linecap="round" fill="none" layerid="3"/>      <g c_partid="part_pad" c_type="pinpart" layerid="11" c_etype="pinpart">  <ellipse  xmlns="http://www.w3.org/2000/svg" cx="4133.5" cy="3285" rx="3.1" ry="3.1" stroke-width="0"  />  <circle cx="4133.5" cy="3285" r="1.75" stroke-width="0" /></g>      <g c_partid="part_pad" c_type="pinpart" layerid="11" c_etype="pinpart">  <ellipse  xmlns="http://www.w3.org/2000/svg" cx="4133.5" cy="3295" rx="3.1" ry="3.1" stroke-width="0"  />  <circle cx="4133.5" cy="3295" r="1.75" stroke-width="0" /></g>      <g c_partid="part_pad" c_type="pinpart" layerid="11" c_etype="pinpart">  <polygon  points="4130.4 3308.1 4130.4 3301.9 4136.6 3301.9 4136.6 3308.1" stroke-linecap="round" stroke-width="0" />  <circle cx="4133.5" cy="3305" r="1.75" stroke-width="0" /></g><path d="M 4163.8935 3192.6468 L 4168.1835 3192.6468 M 4163.8935 3192.6468 L 4163.8935 3190.8068 L 4164.0935 3190.1968 L 4164.2935 3189.9868 L 4164.7035 3189.7868 L 4165.3235 3189.7868 L 4165.7335 3189.9868 L 4165.9335 3190.1968 L 4166.1435 3190.8068 L 4166.1435 3192.6468 M 4164.5035 3185.9768 L 4164.0935 3186.1868 L 4163.8935 3186.7968 L 4163.8935 3187.2068 L 4164.0935 3187.8168 L 4164.7035 3188.2268 L 4165.7335 3188.4368 L 4166.7535 3188.4368 L 4167.5735 3188.2268 L 4167.9835 3187.8168 L 4168.1835 3187.2068 L 4168.1835 3186.9968 L 4167.9835 3186.3868 L 4167.5735 3185.9768 L 4166.9535 3185.7768 L 4166.7535 3185.7768 L 4166.1435 3185.9768 L 4165.7335 3186.3868 L 4165.5235 3186.9968 L 4165.5235 3187.2068 L 4165.7335 3187.8168 L 4166.1435 3188.2268 L 4166.7535 3188.4368" fill="none" layerid="3"  stroke-linecap="round" stroke-width="0.7" /> <polyline points="4171.649 3180.277 4166.345 3185.58 4173.417 3192.651 4194.629 3171.438 4187.559 3164.367" stroke-width="0.8"   stroke-linecap="round" fill="none" layerid="3"/> <polyline points="4187.559 3164.367 4171.649 3180.277" stroke-width="0.79921"   stroke-linecap="round" fill="none" layerid="3"/>      <g c_partid="part_pad" c_type="pinpart" layerid="11" c_etype="pinpart">  <ellipse  xmlns="http://www.w3.org/2000/svg" cx="4187.56" cy="3171.44" rx="3.1" ry="3.1" stroke-width="0"  />  <circle cx="4187.56" cy="3171.44" r="1.75" stroke-width="0" /></g>      <g c_partid="part_pad" c_type="pinpart" layerid="11" c_etype="pinpart">  <ellipse  xmlns="http://www.w3.org/2000/svg" cx="4180.49" cy="3178.51" rx="3.1" ry="3.1" stroke-width="0"  />  <circle cx="4180.49" cy="3178.51" r="1.75" stroke-width="0" /></g>      <g c_partid="part_pad" c_type="pinpart" layerid="11" c_etype="pinpart">  <polygon  points="4169.032 3185.58 4173.416 3181.196 4177.801 3185.58 4173.416 3189.964" stroke-linecap="round" stroke-width="0" />  <circle cx="4173.417" cy="3185.58" r="1.75" stroke-width="0" /></g><path d="M 4271.8326 3131.8935 L 4276.1226 3131.8935 M 4271.8326 3131.8935 L 4271.8326 3130.0535 L 4272.0326 3129.4435 L 4272.2326 3129.2335 L 4272.6426 3129.0335 L 4273.2626 3129.0335 L 4273.6726 3129.2335 L 4273.8726 3129.4435 L 4274.0826 3130.0535 L 4274.0826 3131.8935 M 4271.8326 3124.8135 L 4276.1226 3126.8635 M 4271.8326 3127.6835 L 4271.8326 3124.8135" fill="none" layerid="3"  stroke-linecap="round" stroke-width="0.7" /> <polyline points="4286.78 3126.889 4279.28 3126.889 4279.28 3136.889 4309.28 3136.889 4309.28 3126.889" stroke-width="0.8"   stroke-linecap="round" fill="none" layerid="3"/> <polyline points="4309.28 3126.889 4286.78 3126.889" stroke-width="0.79921"   stroke-linecap="round" fill="none" layerid="3"/>      <g c_partid="part_pad" c_type="pinpart" layerid="11" c_etype="pinpart">  <ellipse  xmlns="http://www.w3.org/2000/svg" cx="4304.27" cy="3131.89" rx="3.1" ry="3.1" stroke-width="0"  />  <circle cx="4304.27" cy="3131.89" r="1.75" stroke-width="0" /></g>      <g c_partid="part_pad" c_type="pinpart" layerid="11" c_etype="pinpart">  <ellipse  xmlns="http://www.w3.org/2000/svg" cx="4294.27" cy="3131.89" rx="3.1" ry="3.1" stroke-width="0"  />  <circle cx="4294.27" cy="3131.89" r="1.75" stroke-width="0" /></g>      <g c_partid="part_pad" c_type="pinpart" layerid="11" c_etype="pinpart">  <polygon  points="4281.18 3128.79 4287.38 3128.79 4287.38 3134.99 4281.18 3134.99" stroke-linecap="round" stroke-width="0" />  <circle cx="4284.28" cy="3131.89" r="1.75" stroke-width="0" /></g><path d="M 4397.8907 3163.8811 L 4397.8907 3168.1711 M 4397.8907 3163.8811 L 4399.7307 3163.8811 L 4400.3407 3164.0811 L 4400.5507 3164.2811 L 4400.7507 3164.6911 L 4400.7507 3165.3111 L 4400.5507 3165.7211 L 4400.3407 3165.9211 L 4399.7307 3166.1311 L 4397.8907 3166.1311 M 4403.1307 3163.8811 L 4402.5107 3164.0811 L 4402.3107 3164.4911 L 4402.3107 3164.9011 L 4402.5107 3165.3111 L 4402.9207 3165.5111 L 4403.7407 3165.7211 L 4404.3507 3165.9211 L 4404.7607 3166.3311 L 4404.9707 3166.7411 L 4404.9707 3167.3511 L 4404.7607 3167.7611 L 4404.5607 3167.9711 L 4403.9407 3168.1711 L 4403.1307 3168.1711 L 4402.5107 3167.9711 L 4402.3107 3167.7611 L 4402.1007 3167.3511 L 4402.1007 3166.7411 L 4402.3107 3166.3311 L 4402.7207 3165.9211 L 4403.3307 3165.7211 L 4404.1507 3165.5111 L 4404.5607 3165.3111 L 4404.7607 3164.9011 L 4404.7607 3164.4911 L 4404.5607 3164.0811 L 4403.9407 3163.8811 L 4403.1307 3163.8811" fill="none" layerid="3"  stroke-linecap="round" stroke-width="0.7" /> <polyline points="4410.265 3171.638 4404.961 3166.335 4397.89 3173.406 4419.104 3194.619 4426.174 3187.548" stroke-width="0.8"   stroke-linecap="round" fill="none" layerid="3"/> <polyline points="4426.174 3187.548 4410.265 3171.638" stroke-width="0.79921"   stroke-linecap="round" fill="none" layerid="3"/>      <g c_partid="part_pad" c_type="pinpart" layerid="11" c_etype="pinpart">  <ellipse  xmlns="http://www.w3.org/2000/svg" cx="4419.1" cy="3187.56" rx="3.1" ry="3.1" stroke-width="0"  />  <circle cx="4419.1" cy="3187.56" r="1.75" stroke-width="0" /></g>      <g c_partid="part_pad" c_type="pinpart" layerid="11" c_etype="pinpart">  <ellipse  xmlns="http://www.w3.org/2000/svg" cx="4412.02" cy="3180.49" rx="3.1" ry="3.1" stroke-width="0"  />  <circle cx="4412.02" cy="3180.49" r="1.75" stroke-width="0" /></g>      <g c_partid="part_pad" c_type="pinpart" layerid="11" c_etype="pinpart">  <polygon  points="4404.961 3169.022 4409.345 3173.406 4404.961 3177.79 4400.577 3173.406" stroke-linecap="round" stroke-width="0" />  <circle cx="4404.961" cy="3173.406" r="1.75" stroke-width="0" /></g><path d="M 4458.7434 3272.7859 L 4458.7434 3277.0759 M 4458.7434 3272.7859 L 4460.5833 3272.7859 L 4461.1933 3272.9858 L 4461.4033 3273.1858 L 4461.6033 3273.5959 L 4461.6033 3274.2158 L 4461.4033 3274.6258 L 4461.1933 3274.8259 L 4460.5833 3275.0359 L 4458.7434 3275.0359 M 4465.6133 3274.2158 L 4465.4134 3274.8259 L 4465.0033 3275.2358 L 4464.3933 3275.4358 L 4464.1834 3275.4358 L 4463.5734 3275.2358 L 4463.1634 3274.8259 L 4462.9534 3274.2158 L 4462.9534 3274.0058 L 4463.1634 3273.3958 L 4463.5734 3272.9858 L 4464.1834 3272.7859 L 4464.3933 3272.7859 L 4465.0033 3272.9858 L 4465.4134 3273.3958 L 4465.6133 3274.2158 L 4465.6133 3275.2358 L 4465.4134 3276.2558 L 4465.0033 3276.8758 L 4464.3933 3277.0759 L 4463.9834 3277.0759 L 4463.3633 3276.8758 L 4463.1634 3276.4658" fill="none" layerid="3"  stroke-linecap="round" stroke-width="0.7" /> <polyline points="4463.75 3287.735 4463.75 3280.235 4453.75 3280.235 4453.75 3310.235 4463.75 3310.235" stroke-width="0.8"   stroke-linecap="round" fill="none" layerid="3"/> <polyline points="4463.75 3310.235 4463.75 3287.735" stroke-width="0.79921"   stroke-linecap="round" fill="none" layerid="3"/>      <g c_partid="part_pad" c_type="pinpart" layerid="11" c_etype="pinpart">  <ellipse  xmlns="http://www.w3.org/2000/svg" cx="4458.67" cy="3305.28" rx="3.1" ry="3.1" stroke-width="0"  />  <circle cx="4458.67" cy="3305.28" r="1.75" stroke-width="0" /></g>      <g c_partid="part_pad" c_type="pinpart" layerid="11" c_etype="pinpart">  <ellipse  xmlns="http://www.w3.org/2000/svg" cx="4458.67" cy="3295.28" rx="3.1" ry="3.1" stroke-width="0"  />  <circle cx="4458.67" cy="3295.28" r="1.75" stroke-width="0" /></g>      <g c_partid="part_pad" c_type="pinpart" layerid="11" c_etype="pinpart">  <polygon  points="4461.851 3282.135 4461.851 3288.335 4455.651 3288.335 4455.651 3282.135" stroke-linecap="round" stroke-width="0" />  <circle cx="4458.751" cy="3285.235" r="1.75" stroke-width="0" /></g>      <g c_partid="part_hole" c_type="pinpart" layerid="11" c_etype="pinpart">
      <circle cx="4196.85" cy="3295.28" r="7.874" stroke="none"/>
      <ellipse cx="4196.85" cy="3295.28" rx="8.674" ry="8.674" stroke-width="0.5" fill="none"/>
      </g>      <g c_partid="part_hole" c_type="pinpart" layerid="11" c_etype="pinpart">
      <circle cx="4393.7" cy="3295.28" r="7.874" stroke="none"/>
      <ellipse cx="4393.7" cy="3295.28" rx="8.674" ry="8.674" stroke-width="0.5" fill="none"/>
      </g>      <g c_partid="part_hole" c_type="pinpart" layerid="11" c_etype="pinpart">
      <circle cx="4423.22" cy="3251.97" r="5.9055" stroke="none"/>
      <ellipse cx="4423.22" cy="3251.97" rx="6.7055" ry="6.7055" stroke-width="0.5" fill="none"/>
      </g>      <g c_partid="part_hole" c_type="pinpart" layerid="11" c_etype="pinpart">
      <circle cx="4423.22" cy="3222.43" r="5.9055" stroke="none"/>
      <ellipse cx="4423.22" cy="3222.43" rx="6.7055" ry="6.7055" stroke-width="0.5" fill="none"/>
      </g>      <g c_partid="part_via" c_type="pinpart" layerid="11"  c_etype="pinpart">
  <circle  xmlns="http://www.w3.org/2000/svg" cx="4297.45" cy="3415.59" r="1.200785" stroke-width="0" stroke="none" />  <circle cx="4297.45" cy="3415.59" r="0.6003925" stroke-width="0" stroke="none"/>
  </g>  <path d="M4118.11,3295.275 A177.165,177.165 0 0 1 4472.44,3295.275" layerid="10" fill="none"  stroke-linecap="round" stroke-width="1"/>  <path d="M4472.44,3295.275 A177.165,177.165 0 0 1 4118.11,3295.275" layerid="10" fill="none"  stroke-linecap="round" stroke-width="1"/></g></svg>