G04 ---------------------------- Layer name :BOTTOM LAYER*
G04 easyEDA 0.1*
G04 Scale: 100 percent, Rotated: No, Reflected: No *
G04 Dimensions in inches *
G04 leading zeros omitted , absolute positions ,2 integer and 4 * 
%FSLAX24Y24*%
%MOIN*%
G90*
G70D02*

%ADD11C,0.008000*%
%ADD12C,0.024016*%
%ADD13R,0.072000X0.129600*%
%ADD14C,0.063500*%
%ADD16R,0.063500X0.063500*%
%ADD17C,0.062000*%
%ADD19R,0.062000X0.062000*%

%LPD*%
G54D11*
G01X28500Y5486D02*
G01X28967Y5486D01*
G01X30719Y7239D01*
G01X30719Y13324D01*
G01X34067Y16671D01*
G01X16727Y1334D02*
G01X16727Y4423D01*
G01X17944Y5640D01*
G01X1550Y18700D02*
G01X4944Y22094D01*
G01X4944Y28651D01*
G01X6350Y30055D01*
G01X6956Y30055D01*
G01X18627Y34011D02*
G01X21118Y31519D01*
G01X21118Y28078D01*
G01X28696Y29859D02*
G01X29347Y29859D01*
G01X30702Y28503D01*
G01X30702Y27137D01*
G01X33869Y23971D01*
G01X33869Y18676D01*
G01X34075Y18676D01*
G01X20118Y28078D02*
G01X20118Y27321D01*
G01X17707Y12963D02*
G01X17707Y13390D01*
G01X17707Y13390D02*
G01X19648Y15332D01*
G01X19648Y26850D01*
G01X20118Y27321D01*
G01X17707Y12750D02*
G01X17707Y12963D01*
G01X17707Y12750D02*
G01X17707Y12536D01*
G01X1550Y16700D02*
G01X1550Y17119D01*
G01X1550Y17119D02*
G01X1444Y17119D01*
G01X1055Y17509D01*
G01X1055Y17800D01*
G01X1402Y18146D01*
G01X1590Y18146D01*
G01X5542Y22096D01*
G01X5542Y28642D01*
G01X16627Y34011D02*
G01X16627Y33590D01*
G01X16627Y33590D02*
G01X20118Y30100D01*
G01X20118Y28078D01*
G01X17707Y12536D02*
G01X18727Y11515D01*
G01X18727Y1334D01*
G01X18707Y12963D02*
G01X21118Y15373D01*
G01X21118Y19078D01*
G01X34067Y17671D02*
G01X32535Y19203D01*
G01X32535Y24684D01*
G01X29402Y27817D01*
G01X29402Y29151D01*
G01X29206Y6194D02*
G01X29206Y12811D01*
G01X34067Y17671D01*
G01X6472Y5873D02*
G01X6472Y12776D01*
G01X1550Y17700D01*
G01X1550Y17700D02*
G01X6248Y22398D01*
G01X6248Y29348D01*
G01X34067Y16671D02*
G01X34532Y17138D01*
G01X34532Y17880D01*
G01X34293Y18121D01*
G01X33834Y18121D01*
G01X33584Y18369D01*
G01X33584Y23848D01*
G01X30110Y27321D01*
G01X30110Y28444D01*
G54D13*
G01X14118Y19078D03*
G01X21118Y28078D03*
G01X20118Y28078D03*
G01X19118Y28078D03*
G01X18118Y28078D03*
G01X17118Y28078D03*
G01X16118Y28078D03*
G01X15118Y28078D03*
G01X14118Y28078D03*
G01X21118Y19078D03*
G01X20118Y19078D03*
G01X19118Y19078D03*
G01X18118Y19078D03*
G01X17118Y19078D03*
G01X16118Y19078D03*
G01X15118Y19078D03*
G54D14*
G01X16707Y12963D03*
G54D16*
G01X17707Y12963D03*
G54D14*
G01X18707Y12963D03*
G54D17*
G01X28500Y5486D03*
G01X29206Y6194D03*
G36*
G01X30351Y6901D02*
G01X29913Y6462D01*
G01X29474Y6901D01*
G01X29913Y7339D01*
G01X30351Y6901D01*
G37*
G01X16727Y1334D03*
G01X17727Y1334D03*
G54D19*
G01X18727Y1334D03*
G54D17*
G01X5765Y6580D03*
G01X6472Y5873D03*
G36*
G01X7180Y4727D02*
G01X6742Y5166D01*
G01X7180Y5604D01*
G01X7618Y5166D01*
G01X7180Y4727D01*
G37*
G01X1550Y18700D03*
G01X1550Y17700D03*
G54D19*
G01X1550Y16700D03*
G54D17*
G01X6956Y30055D03*
G01X6248Y29348D03*
G36*
G01X5103Y28642D02*
G01X5541Y29080D01*
G01X5980Y28642D01*
G01X5541Y28203D01*
G01X5103Y28642D01*
G37*
G01X18627Y34011D03*
G01X17627Y34011D03*
G54D19*
G01X16627Y34011D03*
G54D17*
G01X30110Y28444D03*
G01X29402Y29151D03*
G36*
G01X28696Y30297D02*
G01X29134Y29859D01*
G01X28696Y29421D01*
G01X28257Y29859D01*
G01X28696Y30297D01*
G37*
G01X34067Y16671D03*
G01X34067Y17671D03*
G54D19*
G01X34075Y18676D03*
G54D12*
G01X17944Y5640D03*
G54D13*
G01X14118Y19078D03*
G01X21118Y28078D03*
G01X20118Y28078D03*
G01X19118Y28078D03*
G01X18118Y28078D03*
G01X17118Y28078D03*
G01X16118Y28078D03*
G01X15118Y28078D03*
G01X14118Y28078D03*
G01X21118Y19078D03*
G01X20118Y19078D03*
G01X19118Y19078D03*
G01X18118Y19078D03*
G01X17118Y19078D03*
G01X16118Y19078D03*
G01X15118Y19078D03*
G54D14*
G01X16707Y12963D03*
G54D16*
G01X17707Y12963D03*
G54D14*
G01X18707Y12963D03*
G54D17*
G01X28500Y5486D03*
G01X29206Y6194D03*
G36*
G01X30351Y6901D02*
G01X29913Y6462D01*
G01X29474Y6901D01*
G01X29913Y7339D01*
G01X30351Y6901D01*
G37*
G01X16727Y1334D03*
G01X17727Y1334D03*
G54D19*
G01X18727Y1334D03*
G54D17*
G01X5765Y6580D03*
G01X6472Y5873D03*
G36*
G01X7180Y4727D02*
G01X6742Y5166D01*
G01X7180Y5604D01*
G01X7618Y5166D01*
G01X7180Y4727D01*
G37*
G01X1550Y18700D03*
G01X1550Y17700D03*
G54D19*
G01X1550Y16700D03*
G54D17*
G01X6956Y30055D03*
G01X6248Y29348D03*
G36*
G01X5103Y28642D02*
G01X5541Y29080D01*
G01X5980Y28642D01*
G01X5541Y28203D01*
G01X5103Y28642D01*
G37*
G01X18627Y34011D03*
G01X17627Y34011D03*
G54D19*
G01X16627Y34011D03*
G54D17*
G01X30110Y28444D03*
G01X29402Y29151D03*
G36*
G01X28696Y30297D02*
G01X29134Y29859D01*
G01X28696Y29421D01*
G01X28257Y29859D01*
G01X28696Y30297D01*
G37*
G01X34067Y16671D03*
G01X34067Y17671D03*
G54D19*
G01X34075Y18676D03*

M00*
M02*