G04 ---------------------------- Layer name :TOP PASTER LAYER*
G04 easyEDA 0.1*
G04 Scale: 100 percent, Rotated: No, Reflected: No *
G04 Dimensions in inches *
G04 leading zeros omitted , absolute positions ,2 integer and 4 * 
%FSLAX24Y24*%
%MOIN*%
G90*
G70D02*

%ADD12R,0.059100X0.039400*%
%ADD13R,0.039400X0.059100*%

%LPD*%
G36*
G01X25703Y26621D02*
G01X26121Y27039D01*
G01X26400Y26761D01*
G01X25982Y26343D01*
G01X25703Y26621D01*
G37*
G36*
G01X27061Y27979D02*
G01X27479Y28397D01*
G01X27758Y28118D01*
G01X27340Y27701D01*
G01X27061Y27979D01*
G37*
G36*
G01X27952Y27088D02*
G01X28370Y27506D01*
G01X28648Y27227D01*
G01X28231Y26809D01*
G01X27952Y27088D01*
G37*
G36*
G01X26594Y25730D02*
G01X27012Y26148D01*
G01X27291Y25870D01*
G01X26873Y25452D01*
G01X26594Y25730D01*
G37*
G54D12*
G01X29965Y18306D03*
G01X31885Y18306D03*
G01X31885Y17046D03*
G01X29965Y17046D03*
G36*
G01X26676Y9892D02*
G01X27094Y9475D01*
G01X26815Y9196D01*
G01X26397Y9614D01*
G01X26676Y9892D01*
G37*
G36*
G01X28034Y8535D02*
G01X28452Y8117D01*
G01X28173Y7838D01*
G01X27755Y8256D01*
G01X28034Y8535D01*
G37*
G36*
G01X27143Y7644D02*
G01X27561Y7226D01*
G01X27282Y6947D01*
G01X26864Y7365D01*
G01X27143Y7644D01*
G37*
G36*
G01X25785Y9001D02*
G01X26203Y8584D01*
G01X25924Y8305D01*
G01X25506Y8723D01*
G01X25785Y9001D01*
G37*
G54D13*
G01X18357Y5443D03*
G01X18357Y3523D03*
G01X17097Y3523D03*
G01X17097Y5443D03*
G36*
G01X10172Y8403D02*
G01X9754Y7985D01*
G01X9475Y8264D01*
G01X9893Y8682D01*
G01X10172Y8403D01*
G37*
G36*
G01X8814Y7045D02*
G01X8396Y6627D01*
G01X8118Y6906D01*
G01X8536Y7324D01*
G01X8814Y7045D01*
G37*
G36*
G01X7923Y7936D02*
G01X7505Y7518D01*
G01X7227Y7797D01*
G01X7645Y8215D01*
G01X7923Y7936D01*
G37*
G36*
G01X9281Y9294D02*
G01X8863Y8876D01*
G01X8584Y9155D01*
G01X9002Y9573D01*
G01X9281Y9294D01*
G37*
G54D12*
G01X5660Y17069D03*
G01X3739Y17069D03*
G01X3739Y18330D03*
G01X5660Y18330D03*
G36*
G01X8778Y25649D02*
G01X8360Y26067D01*
G01X8639Y26346D01*
G01X9057Y25928D01*
G01X8778Y25649D01*
G37*
G36*
G01X7421Y27007D02*
G01X7003Y27425D01*
G01X7281Y27703D01*
G01X7699Y27285D01*
G01X7421Y27007D01*
G37*
G36*
G01X8311Y27898D02*
G01X7894Y28315D01*
G01X8172Y28594D01*
G01X8590Y28176D01*
G01X8311Y27898D01*
G37*
G36*
G01X9669Y26540D02*
G01X9251Y26958D01*
G01X9530Y27236D01*
G01X9948Y26819D01*
G01X9669Y26540D01*
G37*
G54D13*
G01X17097Y29901D03*
G01X17097Y31821D03*
G01X18357Y31821D03*
G01X18357Y29901D03*

M00*
M02*