;PTH Drill file created by EasyEDA 
M48
;Holesize 1 = 0.040 INCH
T01C0.040
;Holesize 2 = 0.028 INCH
T02C0.028
;Holesize 3 = 0.035 INCH
T03C0.035
;Holesize 4 = 0.012 INCH
T04C0.012
INCH,00.0000
%
G05
G90
T01
X014118Y019078
X021118Y028078
X020118Y028078
X019118Y028078
X018118Y028078
X017118Y028078
X016118Y028078
X015118Y028078
X014118Y028078
X021118Y019078
X020118Y019078
X019118Y019078
X018118Y019078
X017118Y019078
X016118Y019078
X015118Y019078
T02
X016707Y012963
X017707Y012963
X018707Y012963
T03
X028500Y005486
X029206Y006194
X029913Y006901
X016727Y001334
X017727Y001334
X018727Y001334
X005765Y006580
X006472Y005873
X007180Y005166
X001550Y018700
X001550Y017700
X001550Y016700
X006956Y030055
X006248Y029348
X005541Y028642
X018627Y034011
X017627Y034011
X016627Y034011
X030110Y028444
X029402Y029151
X028696Y029859
X034067Y016671
X034067Y017671
X034075Y018676
T04
X017944Y005640
M30
